<svg width="372" height="315" viewBox="0 0 372 315" fill="none" xmlns="http://www.w3.org/2000/svg">
<g filter="url(#filter0_dd_935_12)">
<path d="M204.022 252.562C220.315 247.138 204.559 132.208 193.68 135.824C182.802 139.44 172.802 153.22 171.192 171.935C170.216 182.93 170.411 209.365 170.704 229.204L184.607 186.204C184.607 186.204 185.339 238.635 181.924 255.249C188.022 255.542 196.071 255.2 204.022 252.562Z" fill="#C0C3D6"/>
<path d="M181.582 255.444C181.68 255.542 181.778 255.591 181.875 255.591C183.192 255.64 184.509 255.689 185.826 255.689C192.412 255.689 198.559 254.76 204.12 252.903C217.632 248.408 210.169 173.987 200.802 145.646C198.266 137.925 195.876 134.554 193.534 135.336C181.631 139.294 172.265 154.246 170.753 171.788C169.777 182.783 169.972 209.023 170.265 229.106C170.265 229.302 170.411 229.497 170.606 229.497C170.85 229.546 170.997 229.4 171.045 229.204L184.119 188.647C184.217 199.397 184.363 240.736 181.436 255.005C181.485 255.249 181.485 255.347 181.582 255.444ZM184.997 186.155C184.997 185.959 184.851 185.764 184.656 185.764C184.461 185.715 184.265 185.861 184.217 186.057L171.094 226.663C170.802 206.971 170.704 182.441 171.631 171.984C173.143 154.784 182.265 140.124 193.827 136.264C195.534 135.727 197.827 139.245 200.071 146.037C204.607 159.817 208.803 185.275 210.169 207.997C211.778 233.846 209.437 250.362 203.925 252.219C197.485 254.369 190.266 255.249 182.46 254.858C185.68 237.853 184.997 186.692 184.997 186.155Z" fill="#C0C3D6"/>
<path d="M171.192 253.734C171.192 253.734 175.533 254.809 181.924 255.2C185.29 238.586 184.607 186.155 184.607 186.155L170.704 229.155C170.899 243.033 171.192 253.734 171.192 253.734Z" fill="#9FA3B5"/>
<path d="M184.656 185.764C184.46 185.715 184.265 185.861 184.217 186.057L170.314 229.058C170.314 229.106 170.314 229.155 170.314 229.204C170.509 242.935 170.802 253.685 170.802 253.783C170.802 253.978 170.948 254.125 171.094 254.174C171.143 254.174 175.533 255.298 181.924 255.64C182.119 255.64 182.314 255.493 182.314 255.298C185.68 238.83 184.997 186.692 184.997 186.155C184.997 185.959 184.851 185.764 184.656 185.764ZM181.582 254.76C176.46 254.467 172.655 253.685 171.582 253.441C171.533 251.535 171.289 241.616 171.094 229.253L184.168 188.744C184.265 199.446 184.412 240.199 181.582 254.76Z" fill="#9FA3B5"/>
<path d="M187.192 134.652C180.363 140.222 181.826 146.916 181.826 146.916C181.826 146.916 188.461 157.569 196.266 149.995C204.12 142.372 194.022 129.081 187.192 134.652Z" fill="#504566"/>
<path d="M186.948 134.309C179.973 139.978 181.387 146.672 181.436 146.965C181.436 147.014 181.485 147.063 181.485 147.112C181.631 147.307 184.851 152.487 189.631 153.073C189.924 153.122 190.217 153.122 190.509 153.122C192.607 153.122 194.656 152.194 196.607 150.288C201.095 145.939 199.973 139.636 196.656 135.922C194.217 133.137 190.266 131.622 186.948 134.309ZM196.022 149.653C194.022 151.607 191.875 152.487 189.729 152.194C185.631 151.705 182.607 147.259 182.217 146.721C182.07 145.988 181.192 140.075 187.436 134.945C190.51 132.404 193.973 134.163 195.973 136.411C199.095 139.88 200.12 145.695 196.022 149.653Z" fill="#504566"/>
<path d="M194.315 248.408C202.217 249.288 240.023 252.61 265.634 240.981C265.536 240.052 265.39 239.026 265.244 238C253.78 237.413 239.145 177.994 239.145 177.994C244.023 175.551 252.707 187.572 259.487 201.498L257.585 130.205C257.585 130.205 222.706 114.031 199.046 117.744C175.387 121.458 167.436 119.015 167.436 119.015C167.436 119.015 130.898 125.416 118.995 143.007C111.385 154.246 106.702 196.172 103.629 220.164C114.849 203.013 132.556 182.197 132.556 182.197C132.556 182.197 136.313 209.61 127.825 225.491C124.751 231.257 122.751 237.56 121.483 243.326C135.435 247.577 157.289 252.024 178.607 247.48C181.29 224.122 191.875 149.653 186.753 144.864C180.948 139.44 175.046 126.198 185.875 126.736C196.705 127.273 193.485 143.349 193.485 143.349C191.485 152.536 190.997 221.239 194.315 248.408Z" fill="#FCD375"/>
<path d="M193.875 248.457C193.875 248.652 194.071 248.799 194.266 248.848C197.29 249.19 205.486 249.972 215.876 249.972C230.901 249.972 250.56 248.359 265.78 241.42C265.927 241.323 266.024 241.176 266.024 240.981C265.927 240.052 265.78 239.026 265.634 238C265.585 237.804 265.439 237.658 265.244 237.658C262.122 237.511 256.609 232.185 248.267 207.753C243.682 194.266 240.218 180.682 239.633 178.385C240.267 178.19 240.95 178.19 241.731 178.483C246.17 179.998 252.804 188.94 259.097 201.84C259.195 202.036 259.39 202.133 259.585 202.085C259.78 202.036 259.926 201.84 259.926 201.645L258.024 130.351C258.024 130.205 257.926 130.058 257.78 129.961C257.438 129.814 222.51 113.786 198.998 117.451C175.777 121.116 167.631 118.771 167.582 118.771C167.533 118.771 167.436 118.722 167.387 118.771C166.997 118.819 130.508 125.367 118.654 142.91C111.629 153.269 107.043 189.673 104.019 213.763C103.726 216.011 103.482 218.161 103.19 220.213C103.141 220.409 103.287 220.604 103.482 220.653C103.677 220.702 103.873 220.653 103.97 220.506C113.873 205.358 128.995 187.181 132.264 183.32C132.8 188.305 134.898 211.515 127.434 225.393C124.702 230.475 122.556 236.485 121.044 243.326C120.995 243.522 121.141 243.766 121.337 243.815C135.825 248.212 157.533 252.513 178.655 247.968C178.851 247.919 178.948 247.773 178.997 247.626C179.485 243.57 180.168 238 180.997 231.55C186.265 189.673 191.095 148.431 187.046 144.62C182.802 140.662 179.046 133.234 180.607 129.521C181.29 127.859 183.046 127.078 185.826 127.175C188.168 127.273 189.973 128.153 191.241 129.765C194.802 134.31 193.046 143.203 193.046 143.301C190.949 153.025 190.705 222.168 193.875 248.457ZM191.827 129.228C190.412 127.42 188.363 126.393 185.778 126.296C181.875 126.1 180.314 127.762 179.729 129.13C177.875 133.479 182.363 141.395 186.363 145.157C190.461 148.969 183.68 202.573 180.07 231.354C179.29 237.658 178.607 243.131 178.119 247.137C157.435 251.486 136.215 247.333 121.873 243.033C123.385 236.436 125.483 230.573 128.068 225.686C136.557 209.854 132.898 182.392 132.849 182.148C132.849 182.001 132.703 181.855 132.556 181.806C132.41 181.757 132.215 181.806 132.117 181.952C131.922 182.148 115.239 201.742 104.116 218.454C104.312 216.939 104.507 215.424 104.702 213.812C107.726 189.82 112.263 153.513 119.19 143.301C130.556 126.491 165.192 119.895 167.289 119.504C168.314 119.797 176.655 121.703 198.998 118.184C221.242 114.715 253.975 129.13 257.048 130.498L258.902 199.641C253.975 189.82 247.145 179.362 241.926 177.603C240.804 177.212 239.779 177.261 238.901 177.701C238.706 177.799 238.657 177.994 238.657 178.19C238.706 178.336 242.365 193.24 247.438 207.997C254.073 227.494 259.926 237.756 264.805 238.489C264.902 239.27 265 240.052 265.097 240.834C239.877 252.122 202.705 248.994 194.656 248.115C191.339 220.018 192.022 152.145 193.778 143.545C193.875 143.056 195.583 134.065 191.827 129.228Z" fill="#FCD375"/>
<path d="M119.629 254.174C123.873 255.689 128.703 256.911 134.069 257.399C154.167 259.305 177.68 262.774 177.924 253.734C177.973 252.708 178.168 250.509 178.509 247.48C157.24 252.024 135.337 247.529 121.385 243.326C120.507 247.382 119.971 251.144 119.629 254.174Z" fill="#504566"/>
<path d="M121.532 242.935C121.434 242.886 121.288 242.935 121.19 242.984C121.093 243.033 120.995 243.131 120.995 243.277C120.215 246.795 119.629 250.46 119.19 254.174C119.19 254.369 119.288 254.565 119.483 254.614C124.263 256.324 129.142 257.399 134.02 257.888C136.215 258.083 138.459 258.327 140.752 258.572C148.606 259.353 156.606 260.184 163.192 260.184C169.387 260.184 174.314 259.451 176.704 257.35C177.777 256.422 178.314 255.249 178.363 253.832C178.412 252.855 178.558 250.9 178.948 247.626C178.948 247.479 178.899 247.382 178.802 247.284C178.704 247.186 178.558 247.137 178.412 247.186C157.484 251.535 135.922 247.284 121.532 242.935ZM177.485 253.734C177.436 254.907 176.997 255.835 176.119 256.617C171.436 260.722 155.874 259.158 140.801 257.643C138.557 257.399 136.313 257.204 134.069 256.959C129.386 256.519 124.703 255.493 120.068 253.881C120.458 250.46 120.995 247.089 121.727 243.864C136.069 248.164 157.289 252.317 178.021 248.017C177.68 250.998 177.533 252.806 177.485 253.734Z" fill="#504566"/>
<path d="M194.314 248.408C194.997 254.027 195.827 257.887 196.851 259.06C202.803 265.804 266.024 258.767 266.268 249.874C266.317 247.968 266.073 244.792 265.585 241.029C239.974 252.61 202.217 249.239 194.314 248.408Z" fill="#504566"/>
<path d="M265.78 240.59C265.683 240.541 265.536 240.541 265.39 240.59C239.779 252.219 201.681 248.75 194.315 247.968C194.168 247.968 194.071 248.017 193.973 248.066C193.875 248.164 193.827 248.261 193.875 248.408C194.607 254.565 195.485 258.083 196.51 259.305C198.266 261.308 204.559 262.139 212.705 262.139C227.486 262.139 248.365 259.353 259.243 255.395C264.122 253.636 266.658 251.731 266.707 249.825C266.756 248.066 266.512 245.036 266.024 240.883C265.975 240.785 265.927 240.687 265.78 240.59ZM265.829 249.825C265.78 251.34 263.341 253.05 258.902 254.614C241.243 260.966 201.388 263.654 197.095 258.718C196.51 258.034 195.583 255.738 194.705 248.848C203.193 249.727 239.974 252.757 265.195 241.567C265.683 245.427 265.878 248.164 265.829 249.825Z" fill="#504566"/>
<path d="M101.336 239.173C104.068 237.56 106.653 237.902 106.653 237.902C106.653 237.902 112.361 240.541 121.434 243.277C122.702 237.511 124.703 231.208 127.776 225.442C136.264 209.561 132.508 182.148 132.508 182.148C132.508 182.148 114.751 202.915 103.58 220.116C102.507 228.227 101.775 235.019 101.336 239.173Z" fill="#E8AE37"/>
<path d="M132.605 181.757C132.459 181.708 132.264 181.757 132.166 181.903C131.971 182.099 114.263 202.915 103.19 219.92C103.141 219.969 103.141 220.018 103.141 220.115C102.116 228.178 101.385 234.921 100.946 239.173C100.946 239.319 100.994 239.466 101.141 239.564C101.287 239.661 101.433 239.661 101.58 239.564C103.921 238.195 106.165 238.342 106.556 238.342C107.239 238.635 112.848 241.176 121.288 243.717C121.337 243.717 121.385 243.717 121.385 243.717C121.483 243.717 121.532 243.717 121.58 243.668C121.678 243.619 121.776 243.522 121.776 243.375C123.288 236.583 125.385 230.621 128.068 225.637C136.557 209.805 132.898 182.343 132.849 182.099C132.898 181.952 132.752 181.806 132.605 181.757ZM127.386 225.295C124.751 230.23 122.605 236.143 121.093 242.789C112.409 240.15 106.897 237.56 106.799 237.56C106.751 237.56 106.702 237.511 106.702 237.511C106.653 237.511 106.409 237.462 106.019 237.462C105.141 237.462 103.58 237.609 101.824 238.44C102.263 234.188 102.994 227.836 103.921 220.262C113.824 205.114 128.898 186.985 132.166 183.174C132.752 188.158 134.849 211.369 127.386 225.295Z" fill="#E8AE37"/>
<path d="M101.336 239.173C101.043 242.007 100.897 243.619 100.897 243.619C100.897 243.619 107.97 250.021 119.629 254.174C119.971 251.144 120.507 247.382 121.434 243.326C112.409 240.59 106.653 237.951 106.653 237.951C106.653 237.951 104.068 237.56 101.336 239.173Z" fill="#191446"/>
<path d="M106.848 237.56C106.799 237.56 106.751 237.511 106.751 237.511C106.653 237.511 103.97 237.169 101.19 238.831C101.092 238.879 100.994 239.026 100.994 239.173C100.702 242.007 100.555 243.619 100.555 243.619C100.555 243.766 100.604 243.864 100.702 243.961C100.751 244.01 107.97 250.46 119.58 254.565C119.629 254.565 119.678 254.614 119.727 254.614C119.824 254.614 119.873 254.614 119.971 254.565C120.068 254.516 120.166 254.37 120.166 254.272C120.556 250.607 121.19 246.942 121.922 243.473C121.971 243.277 121.824 243.033 121.629 242.984C112.653 240.199 106.897 237.56 106.848 237.56ZM119.288 253.588C109.043 249.874 102.409 244.401 101.336 243.473C101.385 242.984 101.531 241.567 101.726 239.466C104.019 238.195 106.165 238.342 106.556 238.342C107.19 238.635 112.653 241.078 120.946 243.619C120.215 246.844 119.678 250.216 119.288 253.588Z" fill="#191446"/>
<path d="M239.096 178.043C239.096 178.043 253.731 237.413 265.195 238.049C263.292 223.976 259.487 204.137 259.487 204.137L259.439 201.547C252.707 187.62 243.975 175.6 239.096 178.043Z" fill="#E8AE37"/>
<path d="M259.829 201.352C254.853 191.09 247.536 179.46 241.975 177.555C240.853 177.164 239.828 177.213 238.95 177.652C238.755 177.75 238.706 177.946 238.706 178.141C239.292 180.584 253.536 237.804 265.195 238.44C265.292 238.44 265.439 238.391 265.488 238.293C265.585 238.195 265.634 238.098 265.585 237.951C263.683 224.025 259.926 204.186 259.878 204.088L259.829 201.498C259.878 201.449 259.878 201.4 259.829 201.352ZM264.707 237.511C254.219 235.312 240.804 183.076 239.584 178.288C240.218 178.092 240.901 178.092 241.682 178.385C246.121 179.9 252.755 188.793 258.999 201.645L259.097 204.186C259.146 204.381 262.804 223.634 264.707 237.511Z" fill="#E8AE37"/>
<path d="M211.827 124.585C210.9 124.488 210.071 125.123 209.974 126.051C209.876 126.98 210.51 127.81 211.437 127.908C225.876 129.667 247.097 134.065 249.048 138.463C249.341 139.098 249.926 139.44 250.56 139.44C250.804 139.44 250.999 139.391 251.243 139.294C252.072 138.903 252.463 137.925 252.072 137.046C248.658 129.374 217.974 125.318 211.827 124.585Z" fill="#4461AB"/>
<path d="M161.289 127.517C160.216 127.566 135.142 128.592 118.312 151.705C117.775 152.438 117.922 153.513 118.702 154.051C118.995 154.246 119.336 154.393 119.678 154.393C120.215 154.393 120.702 154.149 121.044 153.709C136.898 131.964 161.191 130.889 161.435 130.889C162.362 130.84 163.094 130.107 163.045 129.13C162.996 128.201 162.265 127.517 161.387 127.517C161.289 127.517 161.289 127.517 161.289 127.517Z" fill="#4461AB"/>
<path d="M115.092 91.5041C112.507 97.4656 116.312 124.781 116.312 124.781L131.288 134.505C131.288 134.505 150.215 124.243 150.752 112.467C151.289 100.691 135.483 76.4539 135.483 76.4539C135.483 76.4539 117.678 85.5427 115.092 91.5041Z" fill="#F9C09D"/>
<path d="M135.337 76.1119C134.605 76.5028 117.336 85.2984 114.751 91.3576C112.166 97.3679 115.775 123.755 115.922 124.879C115.922 124.976 116.019 125.123 116.117 125.172L131.093 134.896C131.142 134.945 131.239 134.945 131.337 134.945C131.386 134.945 131.483 134.945 131.532 134.896C132.313 134.456 150.655 124.341 151.191 112.467C151.728 100.691 136.508 77.2357 135.874 76.2096C135.727 76.063 135.483 76.0142 135.337 76.1119ZM150.362 112.467C149.874 123.217 133.434 132.844 131.337 134.065L116.702 124.585C116.361 122.142 113.092 97.2213 115.483 91.6996C117.775 86.3734 132.898 78.3596 135.337 77.0403C137.191 79.9233 150.85 101.668 150.362 112.467Z" fill="#F9C09D"/>
<path d="M128.751 101.521C120.654 105.431 119.873 121.898 119.873 121.898C119.873 121.898 124.02 120.579 127.434 116.816C130.8 113.005 146.85 114.764 148.167 115.594C149.435 116.425 136.849 97.6122 128.751 101.521Z" fill="#F9AE82"/>
<path d="M128.556 101.13C120.312 105.137 119.434 121.165 119.434 121.849C119.434 121.996 119.483 122.093 119.58 122.191C119.678 122.24 119.727 122.289 119.824 122.289C119.873 122.289 119.922 122.289 119.971 122.289C120.166 122.24 124.263 120.921 127.678 117.06C130.898 113.493 146.752 115.203 147.874 115.936C148.02 116.034 148.362 116.034 148.508 115.888C148.703 115.692 148.947 115.399 146.557 112.125C144.752 109.731 135.435 97.8077 128.556 101.13ZM147.435 114.91C143.63 113.982 130.264 112.956 127.093 116.523C124.556 119.357 121.58 120.774 120.312 121.263C120.556 118.233 122.02 105.235 128.947 101.863C129.629 101.521 130.361 101.375 131.191 101.375C132.264 101.375 133.434 101.668 134.703 102.254C140.264 104.942 145.971 112.467 147.435 114.91Z" fill="#F9AE82"/>
<path d="M128.361 80.1187C123.483 82.6108 123.288 91.9929 127.922 101.082C132.556 110.17 140.264 115.546 145.142 113.053C150.02 110.561 150.216 101.179 145.581 92.0905C140.947 83.0017 133.239 77.6266 128.361 80.1187Z" fill="#924260"/>
<path d="M128.215 79.7277C123.141 82.3175 122.898 91.9928 127.629 101.277C129.922 105.724 132.995 109.486 136.264 111.783C138.459 113.347 140.654 114.128 142.557 114.128C143.581 114.128 144.508 113.933 145.386 113.493C147.874 112.223 149.289 109.242 149.386 105.137C149.484 101.13 148.264 96.4394 145.971 91.9928C141.24 82.6108 133.239 77.1379 128.215 79.7277ZM148.508 105.04C148.411 108.851 147.191 111.539 144.947 112.662C142.752 113.786 139.825 113.2 136.703 111.05C133.532 108.802 130.556 105.235 128.312 100.886C123.776 91.9927 123.922 82.8551 128.556 80.4607C129.288 80.0698 130.117 79.8743 130.995 79.8743C135.532 79.8743 141.386 84.8097 145.191 92.2371C147.435 96.6349 148.606 101.179 148.508 105.04Z" fill="#924260"/>
<path d="M133.874 77.7732C129.093 80.2165 128.947 89.403 133.483 98.2963C138.02 107.19 145.532 112.467 150.313 110.024C155.094 107.581 155.24 98.394 150.703 89.5007C146.167 80.5585 138.605 75.33 133.874 77.7732Z" fill="#191446"/>
<path d="M133.678 77.3825C128.703 79.9235 128.459 89.4032 133.093 98.492C135.337 102.841 138.313 106.506 141.581 108.753C143.728 110.268 145.874 111.05 147.728 111.05C148.703 111.05 149.63 110.855 150.508 110.415C155.484 107.874 155.728 98.3942 151.094 89.3054C146.459 80.1678 138.605 74.8416 133.678 77.3825ZM150.118 109.633C147.972 110.757 145.093 110.17 142.069 108.069C138.947 105.919 136.02 102.352 133.874 98.101C129.434 89.4031 129.532 80.461 134.117 78.1155C134.849 77.7246 135.678 77.5779 136.508 77.5779C140.947 77.5779 146.654 82.4155 150.362 89.6474C154.752 98.3453 154.655 107.336 150.118 109.633Z" fill="#191446"/>
<path d="M172.655 138.707C168.46 142.861 168.997 156.005 168.997 156.005C168.997 156.005 175.826 144.718 187.192 145.744C187.192 145.793 176.802 134.554 172.655 138.707Z" fill="#E8AE37"/>
<path d="M175.094 137.339C173.972 137.339 173.046 137.681 172.363 138.365C168.119 142.616 168.558 155.468 168.606 156.005C168.606 156.201 168.753 156.347 168.899 156.396C168.948 156.396 168.948 156.396 168.997 156.396C169.143 156.396 169.289 156.298 169.338 156.201C169.387 156.103 176.168 145.157 187.144 146.135C187.339 146.135 187.485 146.037 187.583 145.89C187.68 145.744 187.631 145.548 187.534 145.402C187.192 145.157 180.021 137.437 175.094 137.339ZM185.729 145.304C177.241 145.304 171.387 152.047 169.387 154.735C169.387 151.363 169.68 142.226 172.899 139.049C173.436 138.512 174.119 138.267 174.948 138.267C174.997 138.267 174.997 138.267 175.046 138.267C178.753 138.365 184.168 143.398 186.119 145.353C186.022 145.304 185.875 145.304 185.729 145.304Z" fill="#E8AE37"/>
<path d="M192.607 145.353C192.607 145.353 201.583 138.854 213.486 154.051C213.486 154.051 208.803 135.629 204.022 135.824C199.29 135.971 194.217 138.854 192.607 145.353Z" fill="#E8AE37"/>
<path d="M204.12 135.385C204.071 135.385 204.071 135.385 204.022 135.385C199.485 135.58 193.973 138.219 192.217 145.255C192.168 145.451 192.266 145.597 192.363 145.695C192.51 145.793 192.705 145.793 192.851 145.695C193.193 145.451 201.681 139.636 213.144 154.295C213.242 154.393 213.339 154.442 213.486 154.442C213.535 154.442 213.632 154.442 213.681 154.393C213.876 154.295 213.974 154.1 213.925 153.904C213.437 151.998 209.047 135.385 204.12 135.385ZM197.729 143.594C195.729 143.594 194.168 144.082 193.29 144.522C195.193 138.658 200.022 136.362 204.071 136.215H204.12C207.339 136.215 210.949 146.477 212.608 152.243C206.608 145.255 201.388 143.594 197.729 143.594Z" fill="#E8AE37"/>
<path d="M176.021 117.744C174.509 118.086 173.631 118.331 173.631 118.331C173.631 118.331 182.656 146.574 189.583 145.793C194.461 145.255 201.973 128.153 203.583 118.526C184.558 143.007 176.021 117.744 176.021 117.744Z" fill="#F9C09D"/>
<path d="M203.193 118.233C197.193 126.002 191.68 129.472 186.802 128.69C179.826 127.517 176.411 117.744 176.411 117.647C176.363 117.451 176.119 117.305 175.924 117.353L173.533 117.94C173.436 117.989 173.338 118.038 173.241 118.135C173.192 118.233 173.192 118.38 173.192 118.477C173.582 119.65 182.168 146.232 189.241 146.232C189.339 146.232 189.436 146.232 189.583 146.232C194.997 145.597 202.461 127.566 203.973 118.624C204.022 118.429 203.925 118.233 203.729 118.184C203.534 117.989 203.339 118.038 203.193 118.233ZM189.485 145.353C189.387 145.353 189.339 145.353 189.241 145.353C183.973 145.353 176.704 126.54 174.119 118.624L175.729 118.233C176.411 120.09 179.875 128.348 186.656 129.472C191.583 130.303 196.998 127.126 202.803 120.041C200.607 130.303 193.583 144.864 189.485 145.353Z" fill="#F9C09D"/>
<path d="M201.827 112.076C196.363 113.053 181.777 116.376 176.021 117.744C176.021 117.744 184.558 143.007 203.534 118.477C204.217 114.422 203.876 111.734 201.827 112.076Z" fill="#E68262"/>
<path d="M201.778 111.685C196.558 112.614 183.338 115.643 175.924 117.353C175.826 117.402 175.729 117.451 175.631 117.549C175.582 117.647 175.582 117.793 175.582 117.891C175.729 118.331 179.143 128.25 186.656 129.521C187.143 129.619 187.68 129.667 188.217 129.667C193.046 129.667 198.266 126.003 203.876 118.771C203.925 118.722 203.925 118.673 203.973 118.575C204.559 115.252 204.364 113.053 203.437 112.174C203.144 111.832 202.607 111.49 201.778 111.685ZM202.803 112.711C203.193 113.102 203.778 114.373 203.144 118.282C197.193 125.954 191.68 129.423 186.802 128.641C180.704 127.615 177.338 119.943 176.558 118.038C182.802 116.572 196.656 113.395 201.876 112.467C202.315 112.418 202.607 112.516 202.803 112.711Z" fill="#E68262"/>
<path d="M192.607 145.353C202.705 125.514 213.486 154.051 213.486 154.051C213.486 154.051 216.559 128.592 214.998 124.488C213.486 120.383 203.827 114.715 203.827 114.715C203.827 114.715 204.803 117.549 199.583 128.348C194.363 139.147 192.607 145.353 192.607 145.353Z" fill="#2893D0"/>
<path d="M192.217 145.255C192.168 145.451 192.266 145.695 192.461 145.744C192.656 145.842 192.9 145.744 192.997 145.548C195.339 140.906 197.924 138.61 200.607 138.756C207.339 139.098 213.047 154.002 213.096 154.197C213.144 154.344 213.339 154.491 213.486 154.491H213.535C213.73 154.491 213.876 154.295 213.925 154.1C214.071 153.074 216.998 128.495 215.437 124.341C213.876 120.139 204.51 114.568 204.071 114.324C203.925 114.226 203.729 114.275 203.583 114.373C203.437 114.471 203.388 114.666 203.437 114.813C203.437 114.862 204.217 117.793 199.241 128.104C194.119 138.805 192.217 145.157 192.217 145.255ZM204.364 115.497C206.608 116.865 213.437 121.361 214.657 124.634C215.925 128.006 213.925 146.721 213.291 152.341C211.583 148.383 206.656 138.219 200.705 137.926C200.607 137.926 200.51 137.926 200.412 137.926C198.266 137.926 196.217 139.245 194.314 141.786C195.388 138.903 197.241 134.358 200.022 128.495C203.729 120.774 204.315 117.012 204.364 115.497Z" fill="#2893D0"/>
<path d="M229.145 88.5235C229.682 81.145 238.316 39.6102 202.51 29.1532C166.704 18.6962 134.361 31.9874 129.922 62.5765C129.922 62.5765 130.508 85.0541 139.483 90.869C148.459 96.6839 149.191 119.162 143.874 122.045C140.849 123.706 148.167 122.875 154.947 121.849C158.606 117.012 155.825 105.724 153.825 103.378C151.679 100.789 149.63 92.5304 148.069 88.0838C146.508 83.6371 148.02 79.4836 148.02 79.4836C148.02 79.4836 166.362 103.036 172.558 115.106C173.924 114.08 174.85 113.396 174.85 113.396H196.217C197.485 105.822 204.851 77.1382 204.851 77.1382C204.851 77.1382 209.73 78.1642 213.486 79.4836C217.242 80.8029 219.291 98.5408 212.803 105.48C208.559 110.073 209.925 116.914 211.388 121.116C214.12 122.289 217.145 123.217 220.413 123.559C220.413 123.559 216.462 112.711 220.413 107.825C224.462 102.987 228.608 95.9509 229.145 88.5235Z" fill="#4461AB"/>
<path d="M229.584 88.5724C229.633 87.9371 229.73 87.0087 229.877 85.8359C231.291 74.1085 235.633 38.3886 202.607 28.7623C181.924 22.752 162.021 24.4622 147.972 33.5022C137.679 40.0989 131.288 50.1649 129.483 62.6253C129.532 63.5537 130.166 85.3962 139.24 91.2599C144.557 94.7293 147.045 104.551 146.752 112.467C146.557 117.256 145.386 120.774 143.679 121.702C143.337 121.898 142.606 122.289 142.801 122.875C142.947 123.364 143.191 124.097 155.045 122.289C155.143 122.289 155.24 122.191 155.338 122.142C159.191 117.011 156.216 105.528 154.216 103.134C152.703 101.326 151.142 96.293 149.923 92.2372C149.435 90.6736 148.996 89.2076 148.557 87.986C147.484 84.8098 147.972 81.7802 148.313 80.412C151.289 84.2723 166.753 104.551 172.314 115.35C172.363 115.448 172.46 115.546 172.606 115.546C172.704 115.594 172.85 115.546 172.948 115.497C174.07 114.715 174.85 114.08 175.143 113.835H196.363C196.558 113.835 196.754 113.689 196.802 113.493C197.973 106.506 204.461 81.145 205.339 77.6756C206.559 77.9688 210.461 78.8484 213.535 79.9234C214.462 80.2166 215.388 81.9268 215.974 84.4189C217.388 90.0872 217.291 100.3 212.657 105.235C208.413 109.828 209.486 116.474 211.144 121.312C211.193 121.409 211.291 121.507 211.388 121.556C214.51 122.875 217.584 123.706 220.51 124.048H220.559C220.706 124.048 220.803 123.999 220.901 123.901C220.998 123.804 220.998 123.657 220.949 123.51C220.901 123.413 217.096 112.809 220.901 108.167C223.828 104.405 228.95 96.9771 229.584 88.5724ZM219.925 123.071C217.34 122.729 214.608 121.996 211.876 120.823C210.315 116.279 209.339 110.024 213.242 105.773C218.071 100.593 218.218 89.9894 216.754 84.1746C216.364 82.5132 215.388 79.6791 213.779 79.0927C210.022 77.7734 205.144 76.7472 205.095 76.7472C204.851 76.6983 204.656 76.8449 204.608 77.0403C204.559 77.3335 197.437 104.991 196.022 113.005H175.046C174.948 113.005 174.85 113.053 174.802 113.102C174.802 113.102 174.07 113.689 172.899 114.519C166.558 102.401 148.752 79.4835 148.557 79.2392C148.459 79.1415 148.313 79.0439 148.167 79.0927C148.02 79.0927 147.874 79.2392 147.825 79.3858C147.776 79.5813 146.264 83.7348 147.825 88.2791C148.215 89.4519 148.703 90.9179 149.142 92.4815C150.459 96.8305 151.972 101.766 153.63 103.72C155.435 105.87 158.216 116.718 154.801 121.556C147.24 122.68 144.752 122.729 143.923 122.631C143.971 122.582 144.069 122.533 144.118 122.484C146.118 121.409 147.435 117.647 147.63 112.516C147.923 104.6 145.581 94.3384 139.727 90.5759C131.044 84.9565 130.361 62.8697 130.361 62.7231C132.117 50.5559 138.41 40.7341 148.459 34.2351C162.313 25.3418 181.973 23.6315 202.412 29.593C234.706 39.0238 230.462 74.2062 229.096 85.7382C228.95 86.911 228.852 87.8394 228.803 88.4747C228.218 96.635 223.193 103.916 220.267 107.532C216.657 111.93 219.096 120.628 219.925 123.071Z" fill="#4461AB"/>
<path d="M164.85 120.285C167.533 118.771 170.606 116.621 172.655 115.155C166.46 103.085 148.118 79.5325 148.118 79.5325C148.118 79.5325 146.606 83.686 148.167 88.1327C149.728 92.5793 151.728 100.837 153.923 103.427C155.923 105.773 158.655 117.06 155.045 121.898C160.069 121.165 164.85 120.285 164.85 120.285Z" fill="#283A84"/>
<path d="M154.606 122.093C154.703 122.24 154.801 122.289 154.947 122.289H154.996C160.021 121.556 164.85 120.676 164.899 120.676C164.948 120.676 164.996 120.627 165.045 120.627C167.728 119.113 170.753 117.011 172.85 115.448C172.997 115.35 173.094 115.106 172.997 114.91C166.85 102.938 148.606 79.4347 148.411 79.1904C148.313 79.0926 148.167 78.9949 148.02 79.0438C147.874 79.0438 147.728 79.1904 147.679 79.337C147.63 79.5324 146.118 83.6859 147.679 88.2303C148.069 89.403 148.557 90.8689 148.996 92.4326C150.313 96.7815 151.825 101.717 153.484 103.671C155.338 105.87 158.118 116.914 154.557 121.654C154.557 121.8 154.508 121.947 154.606 122.093ZM154.216 103.134C152.703 101.326 151.142 96.2929 149.923 92.2372C149.435 90.6735 148.996 89.2076 148.557 87.986C147.484 84.8098 147.972 81.7802 148.313 80.412C151.289 84.2723 166.46 104.16 172.119 115.008C170.07 116.474 167.24 118.477 164.753 119.846C164.167 119.943 160.216 120.627 155.874 121.312C158.899 115.888 156.118 105.382 154.216 103.134Z" fill="#283A84"/>
<path d="M213.583 79.5325C209.778 78.2132 204.949 77.187 204.949 77.187C204.949 77.187 197.583 105.919 196.315 113.444H199.437C199.437 113.444 204.364 118.087 211.486 121.165C210.022 116.963 208.656 110.122 212.9 105.528C219.388 98.5408 217.388 80.803 213.583 79.5325Z" fill="#283A84"/>
<path d="M216.705 84.1746C216.315 82.5132 215.34 79.6792 213.73 79.0928C209.974 77.7734 205.095 76.7473 205.047 76.7473C204.803 76.6984 204.608 76.8449 204.559 77.0404C204.461 77.3336 197.144 105.87 195.924 113.347C195.924 113.444 195.924 113.591 196.022 113.689C196.119 113.786 196.217 113.835 196.363 113.835H199.339C200.168 114.568 204.9 118.722 211.388 121.507C211.437 121.507 211.486 121.556 211.535 121.556C211.632 121.556 211.73 121.507 211.827 121.458C211.925 121.361 211.974 121.165 211.925 121.018C210.315 116.425 209.242 110.073 213.242 105.822C218.071 100.593 218.169 90.0384 216.705 84.1746ZM210.803 120.383C204.266 117.403 199.778 113.2 199.729 113.151C199.632 113.054 199.534 113.054 199.437 113.054H196.802C198.168 105.48 204.364 81.0962 205.242 77.7246C206.461 78.0177 210.364 78.8972 213.437 79.9722C214.364 80.2654 215.291 81.9758 215.876 84.4679C217.291 90.1362 217.193 100.349 212.559 105.284C208.608 109.535 209.339 115.692 210.803 120.383Z" fill="#283A84"/>
<path d="M144.849 88.5233C143.24 96.4393 154.02 100.446 157.289 98.7848C160.509 97.1723 151.874 82.9039 151.874 82.9039C151.874 82.9039 146.508 80.6073 144.849 88.5233Z" fill="#F9AE82"/>
<path d="M152.069 82.5618C151.972 82.513 149.972 81.6823 147.923 82.7574C146.215 83.6369 145.045 85.5915 144.459 88.4745C143.825 91.6507 145.045 94.6802 147.923 96.8791C150.118 98.5894 153.142 99.6156 155.435 99.6156C156.216 99.6156 156.947 99.469 157.484 99.2247C157.923 99.0292 158.167 98.6383 158.313 98.1497C159.338 94.5337 152.508 83.246 152.216 82.7574C152.216 82.6596 152.118 82.6107 152.069 82.5618ZM157.533 97.9053C157.435 98.1985 157.338 98.3451 157.094 98.4428C155.435 99.2735 151.386 98.4917 148.411 96.1951C146.557 94.778 144.508 92.2859 145.24 88.6211C145.776 85.9824 146.801 84.2722 148.264 83.4903C148.898 83.1483 149.533 83.0505 150.118 83.0505C150.801 83.0505 151.386 83.1971 151.581 83.2948C153.581 86.5687 158.313 95.2178 157.533 97.9053Z" fill="#F9AE82"/>
<path d="M154.069 34.8215C154.069 34.8215 177.875 24.6577 194.266 31.5476C210.657 38.3886 222.364 63.5537 224.706 74.3528C227.047 85.1518 231.73 57.8367 231.73 57.8367C231.73 57.8367 196.9 0.420897 154.069 34.8215Z" fill="#283A84"/>
<path d="M188.802 24.0224C176.851 21.9213 165.094 25.4395 153.825 34.5283C153.679 34.6749 153.63 34.8704 153.728 35.0658C153.825 35.2613 154.069 35.3101 154.264 35.2612C154.508 35.1635 178.07 25.2441 194.119 31.9874C210.217 38.7306 221.925 63.4072 224.315 74.4994C224.755 76.454 225.291 77.3336 226.023 77.3336C228.608 77.2847 231.34 62.4787 232.121 57.9832C232.121 57.8855 232.121 57.7878 232.072 57.6901C231.877 57.2992 214.169 28.518 188.802 24.0224ZM225.974 76.4052C225.974 76.4052 225.535 76.3563 225.047 74.2063C222.608 62.9675 210.754 37.9488 194.363 31.1078C190.217 29.3486 185.583 28.7135 180.948 28.7135C170.997 28.7135 161.143 31.7431 156.557 33.3556C166.948 25.7327 177.729 22.8497 188.607 24.8043C212.705 29.0555 229.877 55.7843 231.242 57.8855C229.291 69.3198 226.998 76.4052 225.974 76.4052Z" fill="#283A84"/>
<path d="M163.582 15.6177C134.947 25.5372 128.654 48.6502 126.654 64.5311C124.654 80.412 133.874 63.0652 133.874 63.0652C133.874 63.0652 134.752 52.4127 141.435 45.1807C148.118 37.9488 164.118 23.3384 192.217 28.7623C220.315 34.1863 227.877 61.8436 227.877 61.8436L235.048 58.7162C235.048 58.7162 230.95 43.0307 221.389 32.5737C211.827 22.1167 192.266 5.69825 163.582 15.6177Z" fill="#504566"/>
<path d="M163.484 15.2267C141.63 22.8007 129.483 38.926 126.264 64.4821C125.678 69.0265 125.971 71.2254 127.142 71.6163C127.239 71.6652 127.337 71.6651 127.434 71.6651C129.629 71.6651 133.142 65.3128 134.215 63.3094C134.264 63.2605 134.264 63.2116 134.264 63.1628C134.264 63.065 135.239 52.5592 141.727 45.5716C155.24 30.9122 172.216 25.4394 192.119 29.2997C219.632 34.577 227.389 61.7946 227.438 62.0878C227.486 62.1855 227.535 62.2832 227.681 62.3321C227.779 62.3809 227.925 62.3809 228.023 62.3321L235.194 59.2047C235.389 59.107 235.487 58.9115 235.438 58.716C235.389 58.5694 231.194 42.7863 221.681 32.3781C204.851 13.8097 184.704 7.89701 163.484 15.2267ZM228.169 61.3059C226.998 57.641 218.364 33.4043 192.314 28.3713C172.07 24.4621 154.85 30.0326 141.142 44.9363C134.8 51.8262 133.581 61.8923 133.483 62.9673C131.337 67.0231 128.41 71.1277 127.434 70.7857C127.239 70.7368 126.41 70.1503 127.142 64.5798C130.264 39.3657 142.264 23.4848 163.777 16.0086C169.875 13.9074 175.631 12.979 180.948 12.979C198.705 12.979 212.218 23.0939 221.145 32.8668C229.73 42.2976 233.926 56.1263 234.608 58.5206L228.169 61.3059Z" fill="#504566"/>
<path d="M230.364 65.5083C223.584 67.7072 220.901 78.2131 224.413 88.9633C227.925 99.6646 236.267 106.554 243.048 104.356C249.828 102.157 252.511 91.6508 248.999 80.9006C245.487 70.1505 237.145 63.2606 230.364 65.5083Z" fill="#191446"/>
<path d="M241.145 68.0003C237.535 65.0195 233.633 63.9445 230.218 65.0684C226.803 66.1923 224.267 69.3197 223.096 73.9129C221.974 78.4085 222.267 83.7835 223.974 89.0609C225.681 94.3383 228.608 98.8338 232.169 101.815C234.852 104.013 237.682 105.186 240.316 105.186C241.243 105.186 242.218 105.04 243.097 104.746C250.072 102.45 252.902 91.6996 249.292 80.8029C247.633 75.4766 244.755 70.981 241.145 68.0003ZM242.901 103.916C239.779 104.942 236.169 103.965 232.755 101.13C229.291 98.2963 226.462 93.8984 224.803 88.7677C223.145 83.6369 222.803 78.4573 223.925 74.1083C224.998 69.8083 227.34 66.9254 230.462 65.8992C231.291 65.6549 232.121 65.5083 232.999 65.5083C235.486 65.5083 238.121 66.5833 240.609 68.6845C244.072 71.5186 246.902 75.9164 248.56 81.0472C251.975 91.5042 249.438 101.766 242.901 103.916Z" fill="#191446"/>
<path d="M235.73 63.7491C228.95 65.948 226.267 76.4538 229.779 87.204C233.291 97.9542 241.633 104.795 248.414 102.596C255.194 100.397 257.877 89.8915 254.365 79.1414C250.853 68.3912 242.511 61.5013 235.73 63.7491Z" fill="#924260"/>
<path d="M246.511 66.2412C242.901 63.2605 238.999 62.1855 235.584 63.3094C228.608 65.606 225.779 76.3562 229.389 87.253C231.096 92.5303 234.023 97.0258 237.584 100.007C240.267 102.205 243.097 103.378 245.731 103.378C246.706 103.378 247.633 103.232 248.511 102.938C251.926 101.814 254.463 98.6872 255.633 94.094C256.755 89.5985 256.463 84.2234 254.755 78.946C252.999 73.7175 250.121 69.222 246.511 66.2412ZM254.804 93.9474C253.731 98.2474 251.389 101.13 248.267 102.157C245.145 103.183 241.535 102.206 238.121 99.3714C234.657 96.5372 231.828 92.1394 230.169 87.0086C226.755 76.5516 229.291 66.2412 235.828 64.0911C236.657 63.8468 237.487 63.7003 238.365 63.7003C240.853 63.7003 243.487 64.7753 245.975 66.8765C249.438 69.7106 252.268 74.1084 253.926 79.2391C255.585 84.3699 255.926 89.5984 254.804 93.9474Z" fill="#924260"/>
<path d="M268.561 114.862C263.341 117.305 255.78 122.729 258.512 123.706C281.976 132.257 303.147 108.558 301.342 105.773C299.44 103.036 273.732 112.418 268.561 114.862Z" fill="#191446"/>
<path d="M268.366 114.47C264.512 116.278 257.39 120.823 257.487 123.071C257.487 123.364 257.634 123.852 258.316 124.097C261.731 125.367 265.292 125.954 268.902 125.954C273.78 125.954 278.756 124.83 283.683 122.582C291 119.259 296.708 114.128 299.586 110.464C300.659 109.095 302.318 106.652 301.586 105.577C299.391 102.206 271.683 112.956 268.366 114.47ZM298.952 109.975C292.318 118.429 275.537 129.521 258.609 123.364C258.316 123.266 258.316 123.12 258.316 123.071C258.268 121.751 263.78 117.598 268.707 115.301C274.366 112.662 294.074 105.724 299.586 105.724C300.318 105.724 300.757 105.821 300.952 106.115C301.147 106.31 300.757 107.629 298.952 109.975Z" fill="#504566"/>
<path d="M248.706 103.574C248.706 103.574 253.438 114.813 265.975 114.813C267.341 114.813 270.024 128.348 270.024 128.348L301.928 115.497C301.098 109.389 296.269 97.2214 292.074 91.7975C287.878 86.3735 269.78 64.0424 261.682 61.5992C253.585 59.156 241.828 56.3218 235.047 58.765C228.316 61.2083 219.779 67.9516 216.12 70.0039C212.461 72.0562 218.266 77.871 224.608 74.3527C230.12 71.2743 235.145 68.4402 239.292 69.9062C241.487 69.5641 244.365 69.8084 243.145 69.7595C242.316 69.7107 241.292 70.1016 240.511 70.4925C240.706 70.5902 240.901 70.6879 241.048 70.8345C241.048 70.8345 216.266 84.5655 225.535 94.7293C229.291 88.4747 245.584 79.337 245.584 79.337C245.584 79.337 230.56 89.1587 226.511 95.6577C226.657 95.8043 226.852 95.9508 226.998 96.0974C226.998 96.0974 225.535 101.082 231.438 103.183C231.633 101.717 232.023 99.5668 232.852 98.6873C233.682 97.8077 238.462 94.2895 242.218 91.6019C244.755 89.7451 246.804 88.328 246.804 88.328C246.804 88.328 244.755 89.7939 242.218 91.6019C238.462 94.3872 233.633 98.2964 233.047 100.446C232.657 101.815 232.511 102.792 232.462 103.525C232.706 103.574 232.901 103.671 233.194 103.72C233.194 103.72 233.73 110.757 240.609 109.291C247.438 107.825 246.706 105.821 246.17 104.062C244.267 103.427 241.535 103.916 242.511 103.671C243.731 103.329 248.267 102.205 248.267 102.205C248.267 102.205 248.219 102.743 248.17 103.476C248.56 103.476 248.706 103.574 248.706 103.574Z" fill="#F9C09D"/>
<path d="M248.121 103.769C248.219 103.818 248.316 103.818 248.365 103.867C248.999 105.235 254.072 115.203 265.878 115.203C265.878 115.203 265.878 115.203 265.927 115.203C266.707 115.692 268.414 122.289 269.634 128.397C269.683 128.543 269.731 128.641 269.829 128.69C269.878 128.739 269.975 128.739 270.024 128.739C270.073 128.739 270.122 128.739 270.171 128.69L302.074 115.839C302.269 115.79 302.367 115.594 302.318 115.399C301.537 109.389 296.757 97.2214 292.366 91.5042C292.171 91.211 270.951 63.9447 261.78 61.2083C249.194 57.4457 240.17 56.4684 234.901 58.3741C230.218 60.0844 224.608 63.847 220.559 66.6323C218.705 67.9028 217.047 69.0266 215.925 69.6619C214.608 70.3948 214.218 71.763 214.949 73.0824C216.169 75.3301 220.413 77.1869 224.852 74.7437L225.193 74.5483C230.413 71.6653 235.34 68.9289 239.243 70.2971C239.292 70.346 239.389 70.346 239.438 70.2971C239.731 70.2482 239.974 70.2482 240.267 70.1993C240.218 70.2482 240.17 70.3459 240.17 70.4436C240.17 70.5902 240.218 70.688 240.316 70.7858C237.291 72.5449 224.559 80.4121 223.242 88.377C222.852 90.8202 223.535 93.0191 225.291 94.9737C225.389 95.0714 225.535 95.1202 225.633 95.1202C225.779 95.1202 225.876 95.0225 225.974 94.9247C227.486 92.4327 230.999 89.4519 234.706 86.8132C231.242 89.6473 227.877 92.7748 226.218 95.4623C226.12 95.6578 226.12 95.8531 226.315 95.9997L226.462 96.1464C226.511 96.1952 226.559 96.2441 226.608 96.293C226.413 97.4169 225.974 101.717 231.389 103.623C231.486 103.672 231.633 103.671 231.73 103.574C231.828 103.525 231.925 103.378 231.925 103.281C232.169 101.179 232.657 99.6158 233.243 98.9805C233.34 98.8339 233.584 98.6385 233.877 98.3942C233.243 99.176 232.852 99.8112 232.706 100.349C232.364 101.57 232.169 102.597 232.121 103.525C232.121 103.72 232.267 103.916 232.462 103.965L232.706 104.014C232.755 104.014 232.852 104.062 232.901 104.062C233.047 104.942 233.535 107.385 235.487 108.851C236.852 109.877 238.657 110.17 240.804 109.682C244.121 108.949 245.975 108.069 246.706 106.848C247.292 105.821 246.95 104.795 246.706 103.916C246.658 103.769 246.56 103.672 246.463 103.623C246.121 103.476 245.731 103.427 245.34 103.378C246.316 103.134 247.341 102.841 247.975 102.694C247.975 102.89 247.926 103.134 247.926 103.378C247.877 103.574 247.975 103.72 248.121 103.769ZM242.511 103.232C242.316 103.281 241.926 103.378 242.023 103.769C242.072 104.16 242.414 104.16 242.853 104.111C243.536 104.111 244.901 104.014 245.975 104.356C246.219 105.089 246.365 105.773 246.023 106.408C245.438 107.385 243.682 108.167 240.706 108.851C238.804 109.242 237.243 109.047 236.072 108.167C234.072 106.652 233.779 103.72 233.779 103.72C233.779 103.525 233.633 103.378 233.438 103.329C233.34 103.281 233.194 103.281 233.096 103.232C233.145 102.499 233.34 101.57 233.633 100.593C234.072 99.0294 237.291 95.9509 242.657 91.9929C245.194 90.1849 247.243 88.719 247.243 88.719C247.438 88.5724 247.487 88.3281 247.341 88.1326C247.194 87.9372 246.95 87.8882 246.755 88.0348C246.755 88.0348 244.658 89.452 242.121 91.3088C236.511 95.3157 233.34 97.71 232.657 98.443C231.877 99.3225 231.438 101.131 231.194 102.645C226.315 100.642 227.437 96.4395 227.486 96.2441C227.535 96.0975 227.486 95.9021 227.34 95.8043C227.242 95.7555 227.194 95.6577 227.096 95.6088C231.291 89.2564 245.682 79.7768 245.828 79.6791C246.023 79.5325 246.072 79.2882 245.975 79.0927C245.877 78.8973 245.584 78.8484 245.389 78.9461C244.755 79.2881 229.779 87.7417 225.535 93.9964C224.218 92.335 223.681 90.5269 224.023 88.5235C225.437 80.021 241.145 71.2254 241.292 71.1766C241.438 71.1277 241.487 70.9811 241.487 70.8345C241.487 70.7368 241.438 70.6392 241.389 70.5414C242.072 70.2482 242.706 70.1016 243.145 70.1505C243.487 70.1505 243.682 70.1993 243.828 69.955C243.926 69.8084 243.877 69.6618 243.828 69.5152C243.779 69.4664 243.633 69.4175 243.438 69.3686V69.3198C243.389 69.3198 243.34 69.3198 243.194 69.3198C243.145 69.3198 243.145 69.3198 243.097 69.3198C241.975 69.2221 239.877 69.4175 239.34 69.4663C235.096 68.0493 230.072 70.8346 224.706 73.8153L224.364 74.0107C220.413 76.2096 216.705 74.5971 215.632 72.6914C215.34 72.1539 214.998 71.1277 216.266 70.4436C217.437 69.8084 219.047 68.6845 220.949 67.414C224.998 64.6776 230.511 60.9151 235.096 59.2537C240.17 57.3968 249.048 58.3742 261.439 62.0879C268.853 64.3356 285.732 84.5166 291.635 92.1395C295.83 97.5146 300.464 109.389 301.342 115.301L270.219 127.859C268.951 121.654 267.244 114.471 265.878 114.471C253.731 114.471 248.999 103.623 248.95 103.476C248.902 103.378 248.853 103.281 248.755 103.232C248.755 103.232 248.706 103.183 248.609 103.183C248.609 102.645 248.658 102.254 248.658 102.254C248.658 102.108 248.609 101.961 248.511 101.863C248.414 101.766 248.267 101.717 248.121 101.766C248.267 101.717 243.731 102.89 242.511 103.232Z" fill="#F9C09D"/>
<path d="M226.608 95.6576C230.608 89.1586 245.682 79.3369 245.682 79.3369C245.682 79.3369 229.389 88.4746 225.633 94.7292C225.925 95.0224 226.218 95.3644 226.608 95.6576Z" fill="#DA6249"/>
<path d="M245.438 78.9461C244.755 79.337 228.999 88.2304 225.242 94.485C225.145 94.6316 225.145 94.8271 225.291 94.9737C225.584 95.3157 225.925 95.6089 226.315 95.951C226.413 95.9998 226.511 96.0487 226.608 96.0487H226.657C226.755 96.0487 226.901 95.9509 226.95 95.8531C230.852 89.5008 245.731 79.7279 245.877 79.6302C246.072 79.4836 246.121 79.2393 246.023 79.0438C245.877 78.8972 245.633 78.8484 245.438 78.9461ZM226.511 95.0225C226.364 94.9247 226.267 94.7782 226.169 94.6804C227.73 92.2372 231.194 89.403 234.755 86.8132C231.438 89.5008 228.218 92.4815 226.511 95.0225Z" fill="#DA6249"/>
<path d="M246.95 88.3281C246.95 88.3281 244.901 89.6963 242.365 91.602C243.194 91.0156 243.975 90.4293 244.658 89.9407C246.023 88.9634 246.95 88.3281 246.95 88.3281Z" fill="#DA6249"/>
<path d="M246.706 87.986C246.706 87.986 244.609 89.4031 242.072 91.2599C241.877 91.4065 241.828 91.6508 241.975 91.8463C242.072 91.944 242.17 92.0418 242.316 92.0418C242.414 92.0418 242.511 91.9928 242.56 91.944L244.853 90.3315C246.219 89.3542 247.145 88.719 247.145 88.719C247.341 88.5724 247.389 88.3281 247.243 88.1326C247.194 87.8883 246.902 87.8394 246.706 87.986Z" fill="#DA6249"/>
<path d="M232.608 103.525C232.657 102.792 232.803 101.815 233.194 100.446C233.779 98.2963 238.609 94.3871 242.365 91.6018C238.609 94.2894 233.779 97.8076 232.999 98.6872C232.169 99.6156 231.779 101.717 231.584 103.183C231.877 103.329 232.218 103.427 232.608 103.525Z" fill="#DA6249"/>
<path d="M242.121 91.2598C236.511 95.2667 233.34 97.6611 232.657 98.3941C231.779 99.3714 231.34 101.521 231.145 103.134C231.096 103.329 231.242 103.525 231.438 103.574C231.779 103.671 232.121 103.818 232.511 103.916C232.56 103.916 232.56 103.916 232.608 103.916C232.706 103.916 232.804 103.867 232.852 103.818C232.95 103.72 232.999 103.623 233.047 103.525C233.096 102.694 233.291 101.717 233.584 100.544C234.023 98.9804 237.243 95.9019 242.609 91.9439C242.804 91.7973 242.853 91.553 242.706 91.3575C242.56 91.1621 242.316 91.1132 242.121 91.2598ZM232.755 100.349C232.462 101.326 232.316 102.205 232.218 102.987C232.169 102.987 232.072 102.938 232.023 102.938C232.267 100.984 232.755 99.6156 233.291 98.9804C233.389 98.8338 233.633 98.6384 233.925 98.3941C233.291 99.127 232.901 99.8111 232.755 100.349Z" fill="#DA6249"/>
<path d="M248.316 103.378C248.316 102.694 248.414 102.108 248.414 102.108C248.414 102.108 243.877 103.28 242.658 103.574C241.682 103.867 244.462 103.329 246.316 103.965V103.916C245.877 102.596 247.487 103.085 248.316 103.378Z" fill="#DA6249"/>
<path d="M248.121 103.769C248.267 103.818 248.414 103.818 248.511 103.72C248.609 103.622 248.706 103.525 248.706 103.378C248.706 102.694 248.804 102.157 248.804 102.157C248.804 102.01 248.755 101.863 248.658 101.766C248.56 101.668 248.414 101.619 248.267 101.668C248.267 101.668 243.731 102.841 242.511 103.134C242.316 103.183 241.926 103.28 242.023 103.671C242.072 104.062 242.414 104.062 242.853 104.013C243.584 103.965 245.048 103.916 246.17 104.306C246.219 104.306 246.219 104.306 246.267 104.306C246.365 104.306 246.511 104.258 246.56 104.16C246.658 104.062 246.706 103.867 246.658 103.72C246.56 103.476 246.609 103.378 246.609 103.378C246.706 103.476 247.097 103.378 248.121 103.769ZM247.877 102.694C247.877 102.743 247.877 102.792 247.877 102.792C247.78 102.792 247.731 102.743 247.633 102.743C247.731 102.743 247.828 102.694 247.877 102.694ZM245.828 103.427C245.682 103.378 245.487 103.378 245.292 103.329C245.487 103.28 245.682 103.231 245.877 103.183C245.828 103.28 245.828 103.378 245.828 103.427Z" fill="#DA6249"/>
<path d="M240.609 70.4434C241.438 70.0525 242.462 69.6616 243.243 69.7105C244.414 69.7593 241.584 69.515 239.389 69.8571C239.779 70.0037 240.218 70.1991 240.609 70.4434Z" fill="#DA6249"/>
<path d="M243.487 69.3197C243.438 69.3197 243.389 69.3197 243.243 69.3197C243.194 69.3197 243.194 69.3197 243.145 69.3197C241.926 69.222 239.487 69.4174 239.292 69.4662C239.096 69.5151 238.95 69.6617 238.95 69.8572C238.95 70.0526 239.048 70.2481 239.243 70.297C239.584 70.4436 239.974 70.5901 240.414 70.8344C240.462 70.8833 240.56 70.8834 240.609 70.8834C240.657 70.8834 240.755 70.8833 240.804 70.8344C241.828 70.3458 242.657 70.1015 243.243 70.1504C243.584 70.1504 243.779 70.1992 243.926 69.9549C244.023 69.8083 243.975 69.6617 243.926 69.5151C243.828 69.4174 243.682 69.3686 243.487 69.3197Z" fill="#DA6249"/>
<path d="M167.192 113.591C167.192 113.591 160.996 119.796 160.752 124.439C160.509 129.081 167.972 159.719 168.997 155.956C169.728 153.318 169.436 139.049 179.729 142.274C185.875 144.18 187.192 145.744 187.192 145.744C187.192 145.744 173.631 119.552 174.655 115.399C175.68 111.245 167.192 113.591 167.192 113.591Z" fill="#2893D0"/>
<path d="M174.607 113.347C172.85 111.636 167.679 113.053 167.094 113.2C167.045 113.2 166.948 113.249 166.899 113.298C166.655 113.542 160.606 119.699 160.362 124.439C160.216 127.859 166.411 156.347 168.704 156.738C168.753 156.738 168.753 156.738 168.801 156.738C168.997 156.738 169.289 156.64 169.436 156.103C169.582 155.663 169.631 154.93 169.777 154.002C170.167 150.679 170.899 145.157 174.119 143.056C175.582 142.128 177.436 141.981 179.68 142.714C185.534 144.571 186.948 146.037 186.948 146.037C187.095 146.184 187.339 146.232 187.485 146.086C187.68 145.988 187.729 145.744 187.631 145.548C183.875 138.316 174.314 118.771 175.094 115.497C175.289 114.617 175.143 113.884 174.607 113.347ZM186.022 144.424C184.9 143.789 182.997 142.91 179.826 141.883C177.338 141.102 175.241 141.248 173.582 142.323C170.021 144.62 169.289 150.386 168.899 153.855C168.801 154.539 168.753 155.174 168.655 155.614C166.753 152.585 160.996 128.69 161.191 124.439C161.387 120.285 166.704 114.666 167.436 113.933C168.997 113.542 172.85 112.809 174.021 113.884C174.314 114.177 174.411 114.617 174.265 115.252C173.338 119.015 183.143 138.707 186.022 144.424Z" fill="#2893D0"/>
<path d="M172.948 48.3567C168.07 73.6685 151.337 79.5323 148.313 80.4118C149.728 86.2267 158.752 120.139 179.826 120.334C185.924 120.383 190.753 119.357 194.656 117.793C206.608 109.486 206.266 85.3471 204.12 75.6231C200.656 73.9128 196.071 71.323 191.388 67.6581C183.387 65.0683 172.948 48.3567 172.948 48.3567Z" fill="#F9C09D"/>
<path d="M204.315 75.2322C199.681 72.9356 195.436 70.2969 191.68 67.3162C191.631 67.2673 191.583 67.2673 191.534 67.2673C183.729 64.7752 173.436 48.308 173.338 48.1614C173.241 48.0148 173.094 47.917 172.899 47.9658C172.753 48.0147 172.606 48.1125 172.558 48.308C167.777 73.2777 151.435 79.0925 148.215 80.021C148.02 80.0698 147.874 80.3141 147.923 80.5096C148.606 83.3437 151.24 93.4098 156.313 102.694C162.85 114.617 170.753 120.676 179.826 120.725C179.973 120.725 180.119 120.725 180.216 120.725C185.68 120.725 190.607 119.845 194.9 118.086C206.608 109.975 206.949 86.3244 204.559 75.4765C204.51 75.3788 204.412 75.2811 204.315 75.2322ZM194.51 117.353C190.314 119.064 185.29 119.943 179.826 119.845C171.094 119.797 163.435 113.835 157.045 102.254C152.216 93.4587 149.63 83.9301 148.801 80.6562C152.801 79.4346 168.216 73.131 173.143 49.4318C175.436 52.95 184.07 65.6548 191.144 68.0003C194.9 70.9321 199.095 73.6197 203.681 75.8675C206.071 86.6177 205.681 109.535 194.51 117.353Z" fill="#F9C09D"/>
<path d="M194.656 117.744C205.534 113.346 208.9 104.404 210.071 101.326C211.681 97.1722 212.608 82.0241 210.071 78.4081C210.217 78.2615 207.778 77.382 204.12 75.574C206.266 85.298 206.608 109.437 194.656 117.744Z" fill="#F9AE82"/>
<path d="M194.412 117.402C194.217 117.5 194.168 117.744 194.266 117.94C194.363 118.086 194.51 118.184 194.656 118.184C194.705 118.184 194.754 118.184 194.802 118.135C205.73 113.688 209.144 104.942 210.413 101.619L210.461 101.472C212.071 97.3187 213.096 82.2685 210.461 78.2616C210.364 77.9684 210.12 77.8708 208.51 77.1378C207.437 76.6492 206.022 76.0139 204.266 75.1832C204.12 75.1344 203.925 75.1343 203.827 75.232C203.681 75.3298 203.632 75.4764 203.681 75.6719C206.071 86.3243 205.778 109.486 194.412 117.402ZM204.705 76.3559C206.12 77.04 207.291 77.5776 208.217 77.9685C208.852 78.2617 209.486 78.5548 209.73 78.6526V78.7015C212.169 82.1708 211.193 97.3676 209.681 101.228L209.632 101.375C208.51 104.258 205.681 111.538 197.339 116.083C206.364 106.75 206.754 86.6663 204.705 76.3559Z" fill="#F9AE82"/>
<path d="M148.118 79.5322C148.118 79.5322 148.167 79.8743 148.313 80.4118C151.386 79.5322 168.119 73.6684 172.948 48.3567C172.948 48.3567 183.339 65.0683 191.388 67.6581C183.973 61.7944 176.46 53.1943 173.143 40.7339C173.143 40.7339 173.143 72.8378 148.118 79.5322Z" fill="#F9AE82"/>
<path d="M173.533 40.5874C173.485 40.3919 173.289 40.2453 173.094 40.2941C172.899 40.343 172.704 40.4897 172.704 40.734C172.704 41.0272 172.411 72.5935 147.972 79.1414C147.776 79.1902 147.63 79.4346 147.679 79.63C147.679 79.63 147.728 79.9721 147.874 80.5096C147.923 80.6073 147.972 80.7051 148.069 80.7539C148.118 80.8028 148.215 80.8028 148.264 80.8028C148.313 80.8028 148.362 80.8028 148.362 80.8028C151.63 79.8744 167.972 74.0595 173.094 49.4807C175.387 52.9989 184.07 65.8014 191.192 68.0492C191.388 68.098 191.583 68.0003 191.68 67.8538C191.778 67.6583 191.729 67.4628 191.583 67.3162C182.412 59.9865 176.363 51.0444 173.533 40.5874ZM148.606 79.8255C148.898 79.7278 149.191 79.63 149.484 79.5323C149.191 79.6789 148.85 79.7767 148.606 79.8255ZM173.338 48.1124C173.241 47.9659 173.143 47.917 172.997 47.917C172.948 47.917 172.948 47.917 172.899 47.917C173.192 46.0602 173.387 44.3988 173.485 43.1772C176.216 51.6308 181.143 59.1069 188.265 65.4593C181.095 60.524 173.436 48.259 173.338 48.1124Z" fill="#F9AE82"/>
<path d="M180.46 69.9548C178.607 70.6389 176.997 70.5412 175.485 69.7105C171.485 67.4627 170.021 60.4263 170.021 60.3775C169.923 59.9377 169.484 59.6444 169.045 59.6933C168.606 59.791 168.314 60.2308 168.362 60.6706C168.411 61.0126 169.972 68.489 174.655 71.1276C175.729 71.714 176.851 72.056 178.07 72.056C178.997 72.056 180.021 71.8606 181.046 71.5186C181.485 71.372 181.729 70.8833 181.534 70.4435C181.387 70.0037 180.899 69.8082 180.46 69.9548Z" fill="#F9AE82"/>
<path d="M189.729 68.9286C186.753 69.7104 184.07 69.3683 181.68 67.9024C175.094 63.7978 172.899 52.3635 172.85 52.2658C172.753 51.826 172.314 51.5329 171.875 51.5817C171.436 51.6795 171.143 52.1192 171.192 52.559C171.289 53.0477 173.582 64.824 180.753 69.3195C182.558 70.4434 184.558 71.0298 186.656 71.0298C187.778 71.0298 188.948 70.8832 190.119 70.5412C190.558 70.4434 190.851 69.9547 190.705 69.515C190.656 69.0752 190.168 68.782 189.729 68.9286Z" fill="#F9AE82"/>
<path d="M172.997 39.1704C172.509 39.1704 172.167 39.5614 172.167 40.0012C172.167 40.8319 172.167 60.6709 181.68 67.6096C183.826 69.1733 186.265 69.955 188.948 69.955C190.705 69.955 192.558 69.613 194.558 68.9777C194.997 68.8311 195.241 68.3425 195.095 67.9027C194.949 67.4629 194.461 67.2187 194.022 67.3653C189.534 68.8312 185.729 68.4892 182.656 66.2414C173.875 59.8401 173.875 40.1967 173.875 40.0012C173.826 39.5614 173.436 39.1704 172.997 39.1704Z" fill="#4461AB"/>
<path d="M183.924 67.4628C181.387 69.173 179.192 69.564 177.387 68.6844C171.728 65.8991 170.753 51.7772 170.753 51.6306C170.704 51.1908 170.363 50.8 169.875 50.8489C169.436 50.8977 169.045 51.2887 169.094 51.7285C169.143 52.3637 170.119 66.9253 176.655 70.1503C177.533 70.5901 178.46 70.7856 179.387 70.7856C181.095 70.7856 182.9 70.1503 184.851 68.831C185.241 68.5867 185.339 68.0491 185.095 67.6582C184.802 67.3161 184.265 67.2185 183.924 67.4628Z" fill="#4461AB"/>
<path d="M171.241 96.1953C170.704 97.2214 171.045 97.9055 171.289 98.2476C171.924 99.0783 173.387 99.3226 174.802 99.3226C176.119 99.3226 177.387 99.1271 178.021 99.0293C178.46 98.9316 178.802 98.4918 178.704 98.052C178.607 97.6123 178.168 97.2703 177.729 97.368C175.192 97.8078 172.899 97.6612 172.655 97.2703C172.655 97.2703 172.655 97.1725 172.753 96.977C172.997 96.5373 173.338 95.9998 173.728 95.4623C175.777 92.5305 178.851 88.1326 172.07 80.9495C171.777 80.6074 171.241 80.6075 170.899 80.9007C170.558 81.2427 170.558 81.7313 170.85 82.0734C176.704 88.2792 174.314 91.6998 172.363 94.485C171.924 95.0714 171.484 95.6578 171.241 96.1953Z" fill="#62392C"/>
<path d="M161.191 74.9392C160.752 75.1347 160.557 75.6233 160.752 76.063C160.899 76.4051 161.191 76.6006 161.533 76.6006C161.631 76.6006 161.777 76.6005 161.874 76.5517C162.85 76.1608 164.655 75.4279 165.484 75.5256C165.972 75.4767 166.314 75.1836 166.362 74.6949C166.362 74.2551 166.021 73.8642 165.533 73.8153C164.07 73.7176 161.484 74.8415 161.191 74.9392Z" fill="#62392C"/>
<path d="M184.802 71.763C184.363 71.9095 184.119 72.3493 184.217 72.789C184.314 73.1311 184.656 73.3754 184.997 73.3754C185.095 73.3754 185.143 73.3755 185.241 73.3266C186.217 73.0334 188.022 72.6424 188.802 72.789C189.241 72.8868 189.68 72.5936 189.778 72.1538C189.875 71.714 189.583 71.2742 189.144 71.1765C187.729 70.8833 185.095 71.6652 184.802 71.763Z" fill="#62392C"/>
<path d="M189.485 78.7993C186.07 79.5323 184.168 84.0767 185.192 88.9143C186.217 93.7518 189.827 97.1235 193.241 96.3905C196.656 95.6576 198.559 91.1132 197.534 86.2756C196.51 81.4381 192.851 78.0664 189.485 78.7993Z" fill="white"/>
<path d="M189.388 78.4084C187.583 78.7993 186.119 80.1186 185.29 82.1709C184.461 84.1744 184.265 86.6176 184.802 89.0119C185.778 93.6052 188.997 96.9281 192.314 96.9281C192.656 96.9281 192.997 96.8791 193.339 96.8302C195.144 96.4393 196.607 95.12 197.437 93.0677C198.266 91.0643 198.461 88.621 197.924 86.2267C197.388 83.7835 196.266 81.6335 194.656 80.1675C193.046 78.6527 191.144 78.0175 189.388 78.4084ZM196.656 92.7257C195.924 94.4848 194.656 95.6575 193.144 95.9996C189.973 96.6837 186.607 93.4587 185.583 88.8654C185.095 86.6177 185.241 84.321 186.022 82.5131C186.753 80.7539 188.022 79.5811 189.534 79.239C189.827 79.1902 190.119 79.1413 190.412 79.1413C191.68 79.1413 192.949 79.7277 194.071 80.7539C195.534 82.1221 196.607 84.0767 197.095 86.3733C197.583 88.6211 197.437 90.8688 196.656 92.7257Z" fill="white"/>
<path d="M161.631 81.2427C158.216 81.9757 156.313 86.52 157.338 91.3576C158.362 96.1952 161.972 99.5669 165.387 98.8339C168.801 98.1009 170.704 93.5566 169.68 88.719C168.655 83.8814 165.045 80.5097 161.631 81.2427Z" fill="white"/>
<path d="M161.533 80.8516C159.728 81.2426 158.265 82.5619 157.435 84.6142C156.606 86.6176 156.411 89.0608 156.947 91.4552C157.484 93.8984 158.606 96.0485 160.216 97.5145C161.533 98.7361 162.996 99.3713 164.46 99.3713C164.801 99.3713 165.143 99.3224 165.484 99.2735C167.289 98.8826 168.753 97.5633 169.582 95.511C170.411 93.5075 170.606 91.0643 170.07 88.67C169.533 86.2267 168.411 84.0767 166.801 82.6108C165.192 81.0472 163.338 80.4607 161.533 80.8516ZM168.801 95.169C168.07 96.9281 166.801 98.1008 165.289 98.4428C163.777 98.736 162.167 98.1985 160.752 96.8792C159.289 95.511 158.216 93.5564 157.728 91.2598C157.24 89.012 157.386 86.7154 158.167 84.9074C158.899 83.1483 160.167 81.9756 161.679 81.6335C161.972 81.5847 162.265 81.5358 162.557 81.5358C163.826 81.5358 165.094 82.1221 166.216 83.1483C167.68 84.5165 168.753 86.471 169.241 88.7677C169.728 91.0643 169.582 93.3121 168.801 95.169Z" fill="white"/>
<path d="M162.704 82.3666C160.557 83.1973 159.728 86.2268 160.801 89.061C161.923 91.944 164.557 93.6054 166.704 92.7747C168.85 91.944 169.68 88.9143 168.606 86.0802C167.533 83.1972 164.899 81.5359 162.704 82.3666Z" fill="#191446"/>
<path d="M166.314 82.5133C165.094 81.7315 163.777 81.5849 162.606 82.0246C161.435 82.4644 160.557 83.4905 160.167 84.9076C159.777 86.2758 159.874 87.8395 160.46 89.3054C161.045 90.7713 162.021 91.993 163.192 92.7748C163.972 93.2635 164.801 93.5078 165.582 93.5078C166.021 93.5078 166.46 93.4101 166.899 93.2635C169.241 92.335 170.216 89.1099 169.045 85.9826C168.46 84.4678 167.484 83.2463 166.314 82.5133ZM166.606 92.4327C165.679 92.7747 164.655 92.6282 163.631 91.9929C162.606 91.3577 161.728 90.2827 161.24 88.9634C160.752 87.644 160.655 86.2758 160.996 85.103C161.338 83.9791 161.972 83.1485 162.899 82.8064C163.24 82.6598 163.582 82.611 163.923 82.611C164.557 82.611 165.24 82.8065 165.875 83.2463C166.899 83.8815 167.777 84.9565 168.265 86.2758C169.241 88.9145 168.509 91.6997 166.606 92.4327Z" fill="#191446"/>
<path d="M190.461 79.1415C188.314 79.9722 187.485 83.0018 188.558 85.8359C189.68 88.7189 192.314 90.3803 194.461 89.5496C196.607 88.7189 197.437 85.6894 196.363 82.8552C195.29 80.0211 192.656 78.3108 190.461 79.1415Z" fill="#191446"/>
<path d="M190.314 78.7505C189.144 79.1903 188.314 80.2165 187.875 81.6336C187.485 83.0018 187.583 84.5654 188.168 86.0314C188.753 87.4973 189.729 88.7188 190.9 89.5007C191.68 89.9893 192.51 90.2336 193.29 90.2336C193.729 90.2336 194.168 90.1359 194.607 89.9893C196.949 89.0609 197.924 85.8359 196.754 82.7086C195.583 79.5812 192.705 77.8221 190.314 78.7505ZM194.363 89.1587C193.436 89.5007 192.412 89.3542 191.388 88.7189C190.363 88.0837 189.485 87.0087 188.997 85.6893C188.509 84.37 188.412 83.0017 188.753 81.829C189.095 80.7051 189.729 79.8744 190.656 79.5324C190.997 79.3858 191.339 79.337 191.68 79.337C193.388 79.337 195.193 80.8029 196.022 83.0018C196.997 85.6405 196.266 88.4257 194.363 89.1587Z" fill="#191446"/>
<path d="M178.704 108.558C178.265 108.46 177.826 108.753 177.729 109.193C177.631 109.633 177.924 110.072 178.363 110.17C179.29 110.366 180.753 110.903 181.143 111.441C181.29 111.685 181.582 111.783 181.826 111.783C181.973 111.783 182.168 111.734 182.314 111.636C182.704 111.392 182.802 110.854 182.509 110.463C181.631 109.242 179.192 108.655 178.704 108.558Z" fill="#91241E"/>
<path d="M158.899 89.4518C158.899 90.478 159.728 91.3087 160.752 91.3087C161.777 91.3087 162.606 90.478 162.606 89.4518C162.606 88.4257 161.777 87.595 160.752 87.595C159.728 87.595 158.899 88.4257 158.899 89.4518Z" fill="white"/>
<path d="M158.508 89.4519C158.508 90.7224 159.533 91.7485 160.801 91.7485C162.07 91.7485 163.094 90.7224 163.094 89.4519C163.094 88.1814 162.07 87.1553 160.801 87.1553C159.533 87.2041 158.508 88.1814 158.508 89.4519ZM162.216 89.4519C162.216 90.2337 161.582 90.8689 160.801 90.8689C160.021 90.8689 159.387 90.2337 159.387 89.4519C159.387 88.67 160.021 88.0347 160.801 88.0347C161.582 88.0347 162.216 88.67 162.216 89.4519Z" fill="white"/>
<path d="M186.997 86.7153C186.997 87.7414 187.826 88.5721 188.851 88.5721C189.875 88.5721 190.705 87.7414 190.705 86.7153C190.705 85.6891 189.875 84.8584 188.851 84.8584C187.826 84.8584 186.997 85.6891 186.997 86.7153Z" fill="white"/>
<path d="M186.607 86.7153C186.607 87.9858 187.631 89.0119 188.9 89.0119C190.168 89.0119 191.192 87.9858 191.192 86.7153C191.192 85.4448 190.168 84.4187 188.9 84.4187C187.631 84.4187 186.607 85.4448 186.607 86.7153ZM190.314 86.7153C190.314 87.4971 189.68 88.1812 188.851 88.1812C188.07 88.1812 187.387 87.546 187.387 86.7153C187.387 85.9335 188.022 85.2494 188.851 85.2494C189.68 85.2494 190.314 85.8846 190.314 86.7153Z" fill="white"/>
<path d="M135.386 78.3598C139.288 78.0666 148.898 78.2132 148.313 73.229C147.728 68.2448 145.289 67.9516 145.289 67.9516C145.289 67.9516 145.337 67.7561 145.337 67.463C142.313 67.4141 138.02 67.8539 131.63 69.2709C119.678 71.9585 116.653 78.1154 116.653 78.1154C116.653 78.1154 118.849 72.3494 132.508 68.538C138.654 66.8277 142.654 66.1924 145.289 66.0458C144.947 63.7003 143.045 60.0844 134.508 61.2083C122.117 62.8208 116.995 67.2186 113.922 71.1278C110.8 75.037 106.507 78.5552 104.995 90.8202C103.531 103.085 99.4334 112.418 99.4334 112.418L117.678 123.51C117.678 123.51 136.849 110.513 129.581 95.0714C129.581 95.0714 137.874 92.3838 141.727 92.9213C145.581 93.4099 149.045 88.3281 143.484 85.8848C137.922 83.4416 123.873 85.0542 123.873 85.0542C123.873 85.0542 124.263 84.7121 124.898 84.2235C121.385 84.9076 117.336 86.0802 117.336 86.0802C121.434 84.37 124.312 83.5393 126.264 83.1484C128.849 81.2915 132.849 78.5552 135.386 78.3598Z" fill="#F9C09D"/>
<path d="M126.556 83.5883C130.459 80.6564 133.581 78.9461 135.435 78.7995C135.874 78.7507 136.361 78.7507 136.898 78.7018C140.508 78.5064 145.971 78.262 148.02 75.8187C148.654 75.0858 148.898 74.1574 148.801 73.1312C148.313 69.0266 146.606 67.9028 145.825 67.6096C145.825 67.5607 145.825 67.5119 145.825 67.463C145.825 67.3653 145.776 67.2186 145.728 67.1698C145.63 67.072 145.532 67.0231 145.435 67.0231C143.288 66.9743 140.752 67.2186 137.825 67.6584C140.849 66.9743 143.386 66.5834 145.386 66.4857C145.484 66.4857 145.63 66.4368 145.679 66.3391C145.776 66.2414 145.776 66.1437 145.776 65.9971C145.435 63.5538 143.484 59.6446 134.508 60.8174C121.776 62.4788 116.653 67.072 113.629 70.9323C113.239 71.4698 112.8 71.9585 112.361 72.4961C109.483 75.8677 105.921 80.07 104.653 90.8202C103.19 102.841 99.1895 112.223 99.1407 112.272C99.0431 112.467 99.1407 112.711 99.287 112.809L117.532 123.901C117.58 123.95 117.678 123.95 117.727 123.95C117.824 123.95 117.873 123.901 117.971 123.901C118.166 123.755 136.996 110.757 130.215 95.4134C131.971 94.8759 138.508 92.9702 141.727 93.4099C143.923 93.7031 146.167 92.2861 146.703 90.2827C147.24 88.377 146.118 86.6179 143.679 85.5428C139.093 83.5394 128.947 84.2235 125.239 84.5656C125.337 84.419 125.385 84.2723 125.288 84.1257C125.239 84.028 125.19 83.9792 125.093 83.9303C125.532 83.8326 125.971 83.7348 126.361 83.6371C126.41 83.6371 126.459 83.6371 126.556 83.5883ZM117.19 85.7872C116.995 85.8849 116.897 86.0803 116.946 86.3246C117.044 86.5201 117.239 86.6667 117.434 86.5689C117.483 86.5689 120.41 85.6894 123.483 85.0542C123.434 85.1519 123.483 85.2496 123.483 85.3473C123.581 85.4939 123.727 85.5916 123.922 85.5916C124.068 85.5916 137.922 84.028 143.288 86.3735C145.337 87.2531 146.264 88.6213 145.825 90.0873C145.435 91.5043 143.727 92.8725 141.727 92.5793C137.825 92.0906 129.727 94.6316 129.386 94.7782C129.288 94.827 129.19 94.9248 129.142 95.0225C129.093 95.1202 129.093 95.2668 129.142 95.3645C135.776 109.389 119.678 121.605 117.629 123.12L99.9212 112.369C100.653 110.561 104.019 101.864 105.336 91.0156C106.604 80.5098 109.922 76.6006 112.848 73.1312C113.288 72.5937 113.727 72.1051 114.166 71.5676C117.092 67.8539 122.068 63.4072 134.508 61.7947C142.215 60.7685 144.264 63.7004 144.752 65.8504C141.679 66.0459 137.532 66.8766 132.361 68.3426C118.654 72.154 116.312 77.9199 116.263 78.1643C116.166 78.3597 116.263 78.6041 116.507 78.7018C116.702 78.7995 116.946 78.7017 117.044 78.5063C117.092 78.4574 120.166 72.496 131.776 69.8573C137.044 68.6357 141.484 68.0493 144.898 68.0493C144.898 68.1471 144.898 68.2449 144.996 68.3426C145.045 68.4403 145.142 68.4891 145.289 68.4891C145.289 68.4891 147.386 68.8311 147.923 73.3755C148.02 74.1574 147.825 74.8416 147.337 75.4279C145.532 77.578 140.069 77.8223 136.849 77.9689C136.313 78.0177 135.825 78.0177 135.386 78.0666C132.849 78.262 128.995 80.803 126.166 82.953C123.629 83.3439 120.654 84.3212 117.19 85.7872Z" fill="#F9C09D"/>
<path d="M126.264 83.2463C124.312 83.6373 121.385 84.4679 117.336 86.1782C117.336 86.1782 121.385 85.0054 124.898 84.3213C125.288 84.0281 125.727 83.6373 126.264 83.2463Z" fill="#DA6249"/>
<path d="M126.215 82.8064C123.727 83.295 120.702 84.2723 117.19 85.7383C116.995 85.836 116.897 86.0315 116.946 86.2758C116.995 86.4713 117.19 86.5689 117.336 86.5689C117.385 86.5689 117.434 86.5689 117.434 86.5689C117.483 86.5689 121.483 85.3963 124.946 84.7122C124.995 84.7122 125.093 84.6632 125.142 84.6144C125.532 84.3212 125.971 83.9303 126.507 83.5394C126.654 83.4416 126.703 83.1973 126.654 83.0507C126.605 82.9041 126.361 82.8064 126.215 82.8064Z" fill="#DA6249"/>
<path d="M116.653 78.1644C116.653 78.1644 119.678 72.0075 131.63 69.32C138.02 67.8541 142.313 67.463 145.337 67.5119C145.337 67.1699 145.386 66.6813 145.289 66.1438C142.606 66.2904 138.654 66.9256 132.508 68.6358C118.849 72.3984 116.653 78.1644 116.653 78.1644Z" fill="#DA6249"/>
<path d="M145.289 65.7039C142.215 65.8505 137.874 66.6812 132.41 68.196C118.702 72.0074 116.361 77.7734 116.312 78.0177C116.214 78.2131 116.312 78.4575 116.556 78.5552C116.605 78.6041 116.653 78.6041 116.702 78.6041C116.849 78.6041 116.995 78.5064 117.092 78.3598C117.141 78.311 120.215 72.3494 131.825 69.7107C137.337 68.4402 141.923 67.8539 145.435 67.9028C145.679 67.9028 145.825 67.7073 145.874 67.5118C145.923 67.0232 145.874 66.5345 145.825 66.0459C145.679 65.8504 145.484 65.7039 145.289 65.7039ZM144.947 67.0721C142.898 67.0721 140.508 67.2676 137.776 67.7073C140.605 67.0721 142.996 66.6812 144.947 66.5834C144.947 66.73 144.947 66.9255 144.947 67.0721Z" fill="#DA6249"/>
<path d="M98.3114 181.268C86.0671 203.844 71.7252 256.959 88.2135 253.588C107.775 249.581 122.702 218.992 127.727 209.61C131.093 203.306 133.337 186.399 132.215 173.499C126.849 180.047 108.848 210.098 107.482 219.529C106.458 226.761 98.3602 199.69 98.3114 181.268Z" fill="#2893D0"/>
<path d="M132.361 173.059C132.215 173.01 132.02 173.059 131.922 173.205C126.264 180.095 108.507 209.903 107.141 219.431C107.043 220.018 106.946 220.213 106.946 220.262C105.043 219.529 98.848 197.491 98.7992 181.268C98.7992 181.073 98.6529 180.926 98.5065 180.877C98.3114 180.828 98.1163 180.926 98.0187 181.073C87.1891 201.009 75.5302 242.398 82.6524 252.024C83.7256 253.441 85.1403 254.174 86.8964 254.174C87.3842 254.174 87.872 254.125 88.4086 254.027C106.848 250.265 121.044 223.389 127.093 211.906C127.483 211.124 127.873 210.44 128.215 209.805C131.678 203.306 133.874 186.008 132.752 173.45C132.605 173.254 132.508 173.108 132.361 173.059ZM127.386 209.414C127.044 210.049 126.703 210.733 126.264 211.515C120.263 222.901 106.214 249.483 88.116 253.197C85.9696 253.636 84.3597 253.099 83.2378 251.535C76.701 242.691 87.433 203.159 97.9211 182.93C98.3602 196.27 103.629 220.897 106.848 221.142C107.678 221.19 107.873 219.969 107.921 219.578C109.19 210.685 125.776 182.636 131.873 174.574C132.8 186.888 130.703 203.208 127.386 209.414Z" fill="#2893D0"/>
<path d="M98.3114 181.268C98.3602 199.641 106.458 226.712 107.531 219.48C108.897 210.049 126.898 179.998 132.264 173.45C131.678 167.098 130.312 161.674 127.776 159.035C127.776 159.035 116.946 162.651 104.702 172.375C102.799 173.939 100.604 177.115 98.3114 181.268Z" fill="#4461AB"/>
<path d="M127.629 158.693C127.532 158.742 116.605 162.455 104.458 172.13C102.555 173.645 100.36 176.675 97.9699 181.121C97.9212 181.17 97.9211 181.268 97.9211 181.317C97.9699 194.12 103.531 220.897 106.897 221.142H106.946C107.726 221.142 107.921 219.969 107.97 219.578C109.287 210.391 127.142 180.437 132.605 173.743C132.654 173.645 132.703 173.548 132.703 173.45C132.264 168.514 131.093 161.918 128.117 158.79C127.971 158.693 127.776 158.644 127.629 158.693ZM131.776 173.352C126.02 180.486 108.458 209.952 107.092 219.431C106.995 220.018 106.897 220.213 106.897 220.262C104.995 219.529 98.7992 197.589 98.7504 181.366C101.043 177.115 103.19 174.134 104.995 172.717C116.019 163.97 125.971 160.159 127.678 159.523C129.727 161.967 131.191 166.707 131.776 173.352Z" fill="#4461AB"/>
<path d="M249.877 129.863C240.511 134.212 230.95 161.967 242.023 186.155C253.097 210.343 288.122 253.294 298.367 241.713C308.611 230.181 267.536 134.554 267.536 134.554C267.536 134.554 259.243 125.514 249.877 129.863Z" fill="#2893D0"/>
<path d="M267.829 134.261C267.731 134.163 259.243 125.074 249.682 129.472C240.316 133.821 230.218 161.429 241.633 186.301C251.146 207.02 278.317 241.811 292.562 243.961C293.001 244.01 293.488 244.059 293.879 244.059C295.83 244.059 297.391 243.375 298.611 242.007C308.904 230.377 269.536 138.316 267.829 134.407C267.878 134.31 267.878 134.31 267.829 134.261ZM298.074 241.42C296.757 242.886 295.001 243.424 292.757 243.131C278.951 241.078 251.633 206.043 242.462 185.959C231.682 162.358 240.853 134.505 250.072 130.205C251.829 129.423 253.487 129.081 255.146 129.081C261.585 129.081 266.658 134.163 267.195 134.749C268.463 137.828 307.879 230.328 298.074 241.42Z" fill="#2893D0"/>
<path d="M256.365 143.74C253.487 149.653 257.536 167.733 257.585 174.867C257.585 180.095 282.366 223.829 286.074 217.183C289.83 210.489 264.463 136.704 264.463 136.704C264.463 136.704 259.243 137.827 256.365 143.74Z" fill="#4461AB"/>
<path d="M264.365 136.313C264.122 136.362 258.902 137.534 255.975 143.594C253.975 147.649 255.146 156.982 256.219 165.192C256.707 169.003 257.146 172.619 257.146 174.916C257.146 179.949 277.732 216.499 284.415 218.258C284.61 218.307 284.805 218.356 284.951 218.356C285.586 218.356 286.073 218.063 286.415 217.428C290.22 210.684 265.878 139.636 264.853 136.606C264.805 136.362 264.609 136.264 264.365 136.313ZM285.732 216.988C285.488 217.428 285.147 217.525 284.659 217.428C278.415 215.815 258.024 179.607 258.024 174.916C258.024 172.521 257.536 168.905 257.097 165.094C256.121 157.422 254.902 147.845 256.804 143.984C259.146 139.196 263.048 137.632 264.268 137.29C273 162.797 288.61 211.857 285.732 216.988Z" fill="#4461AB"/>
<path d="M243.877 135.042C243.975 135.091 254.463 141.444 258.317 152.096L261.487 150.972C257.243 139.196 246.072 132.453 245.633 132.159L243.877 135.042Z" fill="#504566"/>
<path d="M316.904 245.33C337.441 239.173 341.051 220.067 338.514 204.186C335.978 188.305 320.123 110.61 301.928 121.165C283.732 131.671 265 137.437 265 137.437C257.78 140.662 256.268 150.728 258.463 159.621C260.658 168.466 273.634 202.036 278.317 209.268C283 216.5 281.195 236.681 281.195 236.681C281.195 236.681 296.367 251.438 316.904 245.33Z" fill="#2893D0"/>
<path d="M280.951 236.974C281.098 237.12 291.635 247.235 306.952 247.235C310.123 247.235 313.489 246.795 317.05 245.72C342.319 238.195 340.222 211.955 338.953 204.137C336.465 188.353 323.928 127.859 308.513 120.53C306.22 119.455 303.976 119.552 301.733 120.823C283.781 131.182 265.097 136.997 264.902 137.095H264.853C257.195 140.564 255.975 151.265 258.073 159.768C260.268 168.514 273.293 202.28 277.976 209.561C282.512 216.597 280.805 236.534 280.805 236.729C280.805 236.729 280.854 236.876 280.951 236.974ZM278.707 209.023C274.024 201.791 261.048 168.221 258.902 159.523C256.853 151.363 257.975 141.102 265.195 137.876C265.975 137.632 284.464 131.817 302.172 121.556C304.123 120.432 306.123 120.334 308.172 121.311C314.562 124.341 321.392 137.828 327.977 160.208C333.587 179.216 337.197 198.468 338.124 204.283C339.343 211.955 341.392 237.609 316.806 244.939C297.781 250.607 283.293 237.951 281.683 236.534C281.829 234.237 283.195 215.962 278.707 209.023Z" fill="#2893D0"/>
<path d="M172.802 233.309C174.957 233.309 176.704 231.559 176.704 229.4C176.704 227.241 174.957 225.49 172.802 225.49C170.646 225.49 168.899 227.241 168.899 229.4C168.899 231.559 170.646 233.309 172.802 233.309Z" fill="#E46790"/>
<path d="M168.46 229.4C168.46 231.794 170.411 233.749 172.802 233.749C175.192 233.749 177.143 231.794 177.143 229.4C177.143 227.005 175.192 225.051 172.802 225.051C170.411 225.051 168.46 227.005 168.46 229.4ZM176.314 229.4C176.314 231.354 174.753 232.918 172.802 232.918C170.85 232.918 169.289 231.354 169.289 229.4C169.289 227.445 170.85 225.881 172.802 225.881C174.753 225.881 176.314 227.494 176.314 229.4Z" fill="#E46790"/>
<path d="M177.924 196.612C180.079 196.612 181.826 194.862 181.826 192.703C181.826 190.544 180.079 188.793 177.924 188.793C175.768 188.793 174.021 190.544 174.021 192.703C174.021 194.862 175.768 196.612 177.924 196.612Z" fill="#E46790"/>
<path d="M173.582 192.703C173.582 195.097 175.533 197.051 177.924 197.051C180.314 197.051 182.265 195.097 182.265 192.703C182.265 190.308 180.314 188.354 177.924 188.354C175.533 188.354 173.582 190.308 173.582 192.703ZM181.387 192.703C181.387 194.657 179.826 196.221 177.875 196.221C175.924 196.221 174.363 194.657 174.363 192.703C174.363 190.748 175.924 189.184 177.875 189.184C179.826 189.184 181.387 190.748 181.387 192.703Z" fill="#E46790"/>
<path d="M177.582 156.103C177.485 158.253 179.143 160.11 181.29 160.256C183.436 160.403 185.29 158.693 185.436 156.543C185.534 154.393 183.875 152.536 181.729 152.389C179.533 152.292 177.68 153.953 177.582 156.103Z" fill="#E46790"/>
<path d="M177.143 156.103C176.997 158.497 178.851 160.55 181.241 160.696C181.338 160.696 181.387 160.696 181.485 160.696C183.778 160.696 185.68 158.888 185.826 156.592C185.973 154.197 184.119 152.145 181.729 151.998C179.29 151.901 177.29 153.709 177.143 156.103ZM184.07 154.002C184.704 154.686 184.997 155.614 184.948 156.543C184.9 157.471 184.509 158.351 183.778 158.937C183.095 159.572 182.168 159.914 181.241 159.817C180.314 159.768 179.436 159.377 178.851 158.644C178.265 157.911 177.924 157.031 177.973 156.103C178.021 155.175 178.412 154.295 179.143 153.709C179.777 153.122 180.607 152.829 181.485 152.829C181.534 152.829 181.631 152.829 181.68 152.829C182.607 152.878 183.485 153.318 184.07 154.002Z" fill="#E46790"/>
<path d="M103.531 111.441C98.0675 109.291 96.9455 111.441 95.8723 114.715C94.7991 117.94 91.3844 123.755 88.116 127.175L129.873 151.363C129.873 151.363 138.02 141.102 137.483 137.828C136.947 134.505 109.043 113.591 103.531 111.441Z" fill="#504566"/>
<path d="M103.726 111.05C101.238 110.073 99.4822 109.877 98.2139 110.512C96.7504 111.196 96.0674 112.809 95.4821 114.568C94.4576 117.695 91.1404 123.364 87.8233 126.882C87.7257 126.98 87.6769 127.126 87.7257 127.224C87.7257 127.371 87.8233 127.468 87.9208 127.517L129.678 151.705C129.727 151.754 129.825 151.754 129.873 151.754C130.02 151.754 130.117 151.705 130.215 151.607C131.044 150.532 138.459 141.102 137.874 137.73C137.288 134.016 108.848 113.102 103.726 111.05ZM129.776 150.777L88.7989 127.029C92.0185 123.461 95.2382 117.94 96.2626 114.812C96.7992 113.2 97.3358 111.783 98.5066 111.245C99.5798 110.757 101.141 110.952 103.385 111.832C108.702 113.933 136.557 134.847 137.044 137.828C137.483 140.271 132.166 147.747 129.776 150.777Z" fill="#504566"/>
<path d="M101.824 128.299C92.799 124.585 86.4086 121.947 81.2865 128.299C59.5297 155.419 29.4312 206.336 33.3825 227.64C37.3338 248.945 69.7739 256.519 86.3598 253.978C102.946 251.437 106.556 231.256 107.678 217.916C108.848 204.576 134.996 161.282 134.069 154.783C133.093 148.236 110.848 132.013 101.824 128.299Z" fill="#2893D0"/>
<path d="M101.97 127.908L101.873 127.859C92.799 124.146 86.2622 121.458 80.945 128.055C58.3101 156.25 28.9921 206.58 32.9435 227.738C36.5045 246.991 62.6517 254.858 79.823 254.858C82.2133 254.858 84.4573 254.711 86.4086 254.418C99.0431 252.512 106.117 240.541 108.068 217.965C108.653 210.929 116.458 195.146 123.337 181.268C129.532 168.71 134.898 157.862 134.459 154.735C133.483 147.894 111.044 131.671 101.97 127.908ZM122.605 180.877C115.727 194.852 107.873 210.685 107.239 217.868C105.336 240.052 98.4578 251.731 86.2622 253.588C70.5544 255.982 37.7729 248.994 33.7728 227.592C31.5288 215.571 40.3096 195.292 48.0171 180.389C57.0906 162.944 69.9202 143.105 81.5792 128.592C83.7256 125.905 86.0671 124.879 88.7989 124.879C92.3112 124.879 96.4089 126.589 101.482 128.641L101.58 128.69C111.239 132.648 132.654 148.724 133.532 154.784C134.02 157.716 128.459 168.954 122.605 180.877Z" fill="#2893D0"/>
<path d="M277.634 139.538C286.122 137.095 308.806 126.882 307.782 121.556C306.708 115.888 306.269 115.155 305.098 112.369C303.879 109.486 299.976 102.987 300.708 106.261C302.172 112.614 282.854 120.481 274.366 123.559C265.878 126.687 260.024 125.612 258.463 122.875C258.463 122.875 255.877 121.8 259.487 130.205C263.146 138.61 263 140.76 263 140.76C263 140.76 269.097 141.981 277.634 139.538Z" fill="#504566"/>
<path d="M262.951 141.199C263.097 141.248 264.609 141.541 267.146 141.541C269.731 141.541 273.439 141.248 277.732 139.978C281.878 138.805 289.635 135.678 296.464 132.013C302.123 128.983 308.806 124.683 308.221 121.458C307.294 116.376 306.806 115.252 305.879 113.053L305.489 112.174C305.44 112.076 302.123 104.942 300.708 104.942C300.659 104.942 300.611 104.942 300.611 104.942C300.025 105.137 300.22 105.919 300.318 106.359C301.781 112.614 280.707 120.823 274.219 123.168C266.073 126.149 260.317 125.172 258.853 122.68C258.804 122.582 258.756 122.533 258.658 122.484C258.414 122.386 257.926 122.338 257.536 122.68C256.999 123.217 256.609 124.585 259.146 130.351C262.658 138.414 262.609 140.711 262.609 140.711C262.609 140.955 262.756 141.15 262.951 141.199ZM258.121 123.315C258.17 123.266 258.17 123.266 258.219 123.266C259.926 125.905 265.683 127.175 274.512 123.95C285.049 120.09 302.415 112.711 301.147 106.261C302.074 107.483 303.879 110.512 304.708 112.467L305.098 113.347C306.025 115.497 306.464 116.572 307.391 121.605C307.781 123.657 303.635 127.175 296.074 131.231C289.293 134.847 281.586 137.925 277.488 139.098C270.268 141.15 264.756 140.564 263.39 140.369C263.292 139.44 262.756 136.606 259.878 130.009C257.487 124.439 257.975 123.462 258.121 123.315Z" fill="#504566"/>
<path d="M311.684 145.353C306.903 126.882 300.952 126.54 299.879 126.638L300.025 128.299V129.96C300.074 129.96 304.367 130.547 308.416 146.135L309.05 148.627C327.246 218.698 332.368 229.546 335.197 230.866L336.709 227.885C334.66 226.272 328.758 211.075 312.318 147.796L311.684 145.353Z" fill="#504566"/>
<path d="M114.166 169.443C130.849 146.428 121.239 135.971 120.849 135.531L118.41 137.876C118.507 137.974 126.361 146.965 111.483 167.488C95.9699 188.891 75.2863 236.68 79.1401 255.249L82.4572 254.565C80.7986 246.649 84.0671 231.501 91.4331 213.03C97.7748 196.807 106.751 179.704 114.166 169.443Z" fill="#504566"/>
</g>
<defs>
<filter id="filter0_dd_935_12" x="0.58263" y="0.171387" width="371.038" height="313.967" filterUnits="userSpaceOnUse" color-interpolation-filters="sRGB">
<feFlood flood-opacity="0" result="BackgroundImageFix"/>
<feColorMatrix in="SourceAlpha" type="matrix" values="0 0 0 0 0 0 0 0 0 0 0 0 0 0 0 0 0 0 127 0" result="hardAlpha"/>
<feMorphology radius="8" operator="erode" in="SourceAlpha" result="effect1_dropShadow_935_12"/>
<feOffset dy="20"/>
<feGaussianBlur stdDeviation="20"/>
<feColorMatrix type="matrix" values="0 0 0 0 0.0627451 0 0 0 0 0.0941176 0 0 0 0 0.156863 0 0 0 0.1 0"/>
<feBlend mode="normal" in2="BackgroundImageFix" result="effect1_dropShadow_935_12"/>
<feColorMatrix in="SourceAlpha" type="matrix" values="0 0 0 0 0 0 0 0 0 0 0 0 0 0 0 0 0 0 127 0" result="hardAlpha"/>
<feMorphology radius="8" operator="erode" in="SourceAlpha" result="effect2_dropShadow_935_12"/>
<feOffset dy="20"/>
<feGaussianBlur stdDeviation="20"/>
<feColorMatrix type="matrix" values="0 0 0 0 0.0627451 0 0 0 0 0.0941176 0 0 0 0 0.156863 0 0 0 0.05 0"/>
<feBlend mode="normal" in2="effect1_dropShadow_935_12" result="effect2_dropShadow_935_12"/>
<feBlend mode="normal" in="SourceGraphic" in2="effect2_dropShadow_935_12" result="shape"/>
</filter>
</defs>
</svg>
