<svg width="94" height="94" viewBox="0 0 94 94" fill="none" xmlns="http://www.w3.org/2000/svg">
<g clip-path="url(#clip0_822_1038)">
<path d="M85.7285 74.1338L29.1481 91.0763C24.882 92.3537 20.5057 89.9944 19.2283 85.7284L2.28591 29.1481C1.00846 24.882 3.36782 20.5057 7.63392 19.2283L64.2143 2.28582C68.4802 1.00842 72.8566 3.36774 74.1341 7.63384L91.0765 64.2142C92.3538 68.4802 89.9944 72.8564 85.7285 74.1338Z" fill="#5CA4DA"/>
<path d="M57.9274 4.16834C58.7292 16.6505 55.5338 31.3081 47.9839 45.3124C39.962 60.192 28.4173 71.4779 16.7407 77.4209L2.28591 29.1481C1.00846 24.882 3.36782 20.5057 7.63393 19.2283L57.9274 4.16834Z" fill="#6DAFE0"/>
<path d="M63.2312 36.5877C64.9412 29.2253 64.5403 22.9842 60.5229 21.0066C56.4383 18.8045 51.2285 21.8324 46.0176 27.3074C40.5426 22.0964 35.0665 19.3324 31.1367 21.7324C27.2069 24.1324 27.316 30.2162 29.4674 37.401C22.2826 39.5524 17.2073 43.0295 17.2949 47.4071C17.4496 52.0092 22.7685 55.065 30.1309 56.7749C28.4209 64.1373 28.8218 70.3784 32.8392 72.356C36.9238 74.5581 42.1336 71.5302 47.3445 66.0552C52.8195 71.2662 58.2956 74.0302 62.2254 71.6302C66.1552 69.2302 66.0461 63.1464 63.8947 55.9616C71.0795 53.8102 76.1548 50.3331 76.0673 45.9555C75.9126 41.3534 70.5937 38.2974 63.2312 36.5877ZM58.95 23.9241C60.7005 24.8678 61.3044 29.3356 59.7747 35.6654C57.7095 35.3051 55.4198 35.0121 52.973 35.011C51.6942 33.1919 50.191 31.4401 48.688 29.6883C53.1351 24.9315 56.9749 23.0477 58.95 23.9241ZM51.4812 54.5408C48.1362 54.8084 45.4646 54.8746 42.277 54.8504C40.5049 52.2005 39.0917 49.9325 37.477 46.9908C38.8254 44.1405 40.0838 41.8064 41.8812 38.8217C45.2263 38.5541 47.8978 38.488 51.0854 38.5121C52.8575 41.162 54.2707 43.43 55.8854 46.3717C54.6042 49.4465 53.3458 51.7806 51.4812 54.5408ZM57.9037 50.6604C58.3971 51.4913 58.7332 52.6139 59.0022 53.512C58.104 53.781 57.1387 53.8254 56.0161 54.1616L57.9037 50.6604ZM48.9873 58.4682C48.2909 59.4107 47.7517 60.0614 47.2799 60.9367C46.562 60.1731 45.8439 59.4094 45.3505 58.5785C46.9895 58.3324 47.0567 58.5569 48.9873 58.4682ZM37.7648 54.4889C36.7322 54.3088 35.7668 54.3531 34.7343 54.1731C34.9815 53.365 35.3862 52.2652 35.8582 51.39C36.5534 52.8943 36.7779 52.8271 37.7648 54.4889ZM35.4586 42.702C34.9651 41.8711 34.629 40.7485 34.3601 39.8504C35.2582 39.5814 36.2235 39.537 37.3461 39.2008L35.4586 42.702ZM44.375 34.8942C45.0714 33.9517 45.6106 33.301 46.0823 32.4257C46.8002 33.1893 47.5183 33.953 48.0117 34.7839C46.3728 35.03 46.3055 34.8055 44.375 34.8942ZM55.5974 38.8735C56.63 39.0536 57.5954 39.0093 58.628 39.1893C58.3807 39.9974 57.976 41.0972 57.504 41.9724C56.8088 40.4681 56.5843 40.5353 55.5974 38.8735ZM33.2678 24.764C34.9296 23.7772 39.1042 25.4629 43.8611 29.9104C42.401 31.5709 41.2328 33.3886 39.84 35.2737C37.4603 35.497 35.3723 35.8775 33.0599 36.3253C31.2446 30.2629 31.3815 25.8181 33.2678 24.764ZM20.9989 47.521C20.9101 45.5903 24.4809 42.8086 30.7677 40.9261C31.5973 42.8796 32.4941 45.0576 33.6156 47.1683C32.8063 49.3679 31.9297 51.3429 31.3449 53.4753C24.7233 51.7883 21.0878 49.4517 20.9989 47.521ZM34.4122 69.4383C32.6617 68.4946 32.0578 64.0268 33.5876 57.697C35.6527 58.0573 37.9424 58.3503 40.3893 58.3514C41.668 60.1705 43.1712 61.9223 44.6742 63.6741C40.2271 68.4311 36.3873 70.3147 34.4122 69.4383ZM60.0944 68.5984C58.4326 69.5852 54.2581 67.8995 49.5011 63.452C50.9612 61.7915 52.1294 59.9738 53.5222 58.0887C55.9019 57.8654 57.9899 57.4849 60.3023 57.0371C62.1176 63.0995 61.9807 67.5443 60.0944 68.5984ZM72.3633 45.8414C72.4522 47.772 68.8813 50.5538 62.5945 52.4363C61.7649 50.4828 60.8681 48.3048 59.7467 46.1941C60.5559 43.9945 61.4325 42.0195 62.0173 39.8871C68.6389 41.5741 72.2745 43.9106 72.3633 45.8414Z" fill="white"/>
<path d="M48.1603 51.6207C50.8884 50.8038 52.4377 47.9301 51.6208 45.2021C50.8039 42.474 47.9302 40.9247 45.2021 41.7416C42.4741 42.5585 40.9248 45.4322 41.7416 48.1603C42.5585 50.8883 45.4323 52.4376 48.1603 51.6207Z" fill="white"/>
</g>
<defs>
<clipPath id="clip0_822_1038">
<rect width="75" height="75" fill="white" transform="translate(0 21.5142) rotate(-16.6698)"/>
</clipPath>
</defs>
</svg>
