<svg width="127" height="127" viewBox="0 0 127 127" fill="none" xmlns="http://www.w3.org/2000/svg">
<g clip-path="url(#clip0_822_1044)" filter="url(#filter0_dd_822_1044)">
<path d="M59.2354 55.2737C60.3271 56.2941 61.7397 56.9932 63.3373 57.1955L77.0028 58.9257L76.1639 65.5519L85.6654 60.0226L89.4024 60.4957C93.431 61.0058 97.109 58.1635 97.6175 54.1473L100.908 28.1616C101.416 24.1454 98.5628 20.4761 94.5341 19.966L68.4688 16.6658C64.4403 16.1557 60.7623 18.9979 60.2538 23.0142L56.2176 54.8916L59.2354 55.2737Z" fill="#F7F3F1"/>
<path d="M94.5342 19.966L88.2864 19.1749C92.3151 19.685 95.1686 23.3544 94.6601 27.3705L91.3699 53.3562C90.8614 57.3724 87.1834 60.2147 83.1548 59.7046L79.4178 59.2314L76.7691 60.7728L76.164 65.5519L85.6655 60.0225L89.4025 60.4957C93.4311 61.0057 97.1091 58.1635 97.6176 54.1472L100.908 28.1616C101.416 24.1455 98.5628 20.4761 94.5342 19.966Z" fill="#EFE7E3"/>
<path d="M72.0986 47.4747L72.7734 48.1785C73.8432 49.2943 75.2637 50.009 76.7973 50.2033L87.4704 51.5546C88.4821 51.6827 89.4037 50.9418 89.485 49.9134C89.5611 48.9501 90.7124 40.2356 90.8369 39.2525C90.9614 38.2693 90.2653 37.3712 89.282 37.2467L82.0473 36.3085L83.1992 34.322C83.7896 33.3037 84.1373 32.1629 84.2151 30.9883C84.2928 29.8137 84.0987 28.637 83.6476 27.5497C83.1355 26.4849 81.5435 26.6512 81.3602 27.8572C81.1219 29.7392 80.2047 31.4694 78.7808 32.7229L73.5047 37.3606L71.8222 37.1476L70.5397 47.2772L72.0986 47.4747Z" fill="#FFD36C"/>
<path d="M71.1748 48.9896L66.3019 48.3726C66.1472 48.3531 66.0066 48.2728 65.9111 48.1496C65.8155 48.0264 65.7729 47.8702 65.7924 47.7155L67.3653 35.2935C67.3849 35.1388 67.4651 34.9982 67.5883 34.9027C67.7116 34.8071 67.8677 34.7645 68.0224 34.7841L72.8953 35.401C72.9719 35.4107 73.0458 35.4354 73.1129 35.4737C73.1799 35.512 73.2388 35.5631 73.2861 35.6241C73.3334 35.6851 73.3682 35.7549 73.3886 35.8293C73.4089 35.9038 73.4144 35.9816 73.4047 36.0582L71.8319 48.4802C71.8122 48.6349 71.732 48.7754 71.6088 48.8709C71.4856 48.9664 71.3295 49.0091 71.1748 48.9896Z" fill="#8EE6F3"/>
<path d="M57.597 68.2975L60.9177 42.0709C61.3187 38.9038 59.0685 36.0102 55.8915 35.608L35.3368 33.0054C32.16 32.6032 29.2594 34.8446 28.8584 38.0117L26.2639 58.5036C25.8628 61.6707 28.1131 64.5643 31.2901 64.9666L42.582 66.3963L41.9142 71.6706L49.4131 67.2613L57.597 68.2975Z" fill="#72D1FB"/>
<path d="M55.8916 35.608L47.7461 34.5767C50.9229 34.9789 53.1733 37.8725 52.7723 41.0396L49.4516 67.2662L57.5972 68.2975L60.9179 42.071C61.3187 38.9039 59.0685 36.0103 55.8916 35.608Z" fill="#62A6FD"/>
<path d="M50.9152 52.9268L46.7812 52.4034L47.5809 49.7217L51.262 50.1877C52.7104 50.3711 52.9948 48.1255 51.5463 47.9421L48.2365 47.523L49.3283 43.8617C49.7455 42.4628 47.5765 41.8158 47.1591 43.215L45.9605 47.2348L43.2518 46.8919L44.3436 43.2306C44.7607 41.8316 42.592 41.1845 42.1744 42.5838L40.9757 46.6037L36.4705 46.0333C35.0221 45.8499 34.7377 48.0955 36.1862 48.2789L40.3201 48.8023L39.5204 51.4841L35.8394 51.018C34.3909 50.8346 34.1066 53.0803 35.555 53.2637L38.8648 53.6827L37.773 57.3441C37.3602 58.7282 39.5243 59.3919 39.9422 57.9908L41.1409 53.9709L43.8496 54.3139L42.7578 57.9752C42.3449 59.3593 44.5091 60.023 44.927 58.6219L46.1256 54.6021L50.6309 55.1725C52.0793 55.3559 52.3636 53.1102 50.9152 52.9268ZM44.5052 52.1152L41.7966 51.7723L42.5963 49.0905L45.305 49.4335L44.5052 52.1152Z" fill="#F7F3F1"/>
<path d="M69.2548 65.5163L54.6682 63.6695C52.4138 63.384 50.3554 64.9746 50.0708 67.2222L48.2296 81.7641C47.945 84.0117 49.542 86.0651 51.7965 86.3505L59.8097 87.3651L59.3358 91.1082L64.6574 87.9791L66.383 88.1976C68.6375 88.483 70.6958 86.8925 70.9804 84.6449L72.8217 70.1029C73.1062 67.8553 71.5093 65.8018 69.2548 65.5163Z" fill="#FA9084"/>
<path d="M69.2545 65.5164L62.9667 64.7202C65.2212 65.0057 66.8181 67.0591 66.5336 69.3067L64.6923 83.8488C64.4077 86.0964 62.3494 87.6869 60.0949 87.4015L59.8094 87.3653L59.3355 91.1082L64.6572 87.9791L66.3827 88.1976C68.6372 88.4831 70.6956 86.8925 70.9801 84.6449L72.8214 70.1028C73.1059 67.8554 71.509 65.8018 69.2545 65.5164Z" fill="#FF6CB5"/>
<path d="M59.8997 80.8747C63.6454 79.4583 65.6644 78.1053 65.975 75.6524C66.4034 72.2691 62.3659 70.8985 60.8605 73.2861C59.8391 70.4928 55.7461 70.9199 55.3177 74.303C55.0072 76.7559 56.6252 78.5693 59.8997 80.8747Z" fill="#F7F3F1"/>
</g>
<defs>
<filter id="filter0_dd_822_1044" x="-5.24727" y="-4.08591" width="135.046" height="135.046" filterUnits="userSpaceOnUse" color-interpolation-filters="sRGB">
<feFlood flood-opacity="0" result="BackgroundImageFix"/>
<feColorMatrix in="SourceAlpha" type="matrix" values="0 0 0 0 0 0 0 0 0 0 0 0 0 0 0 0 0 0 127 0" result="hardAlpha"/>
<feMorphology radius="3.6585" operator="erode" in="SourceAlpha" result="effect1_dropShadow_822_1044"/>
<feOffset dy="9.75599"/>
<feGaussianBlur stdDeviation="14.634"/>
<feColorMatrix type="matrix" values="0 0 0 0 0.0627451 0 0 0 0 0.0941176 0 0 0 0 0.156863 0 0 0 0.1 0"/>
<feBlend mode="normal" in2="BackgroundImageFix" result="effect1_dropShadow_822_1044"/>
<feColorMatrix in="SourceAlpha" type="matrix" values="0 0 0 0 0 0 0 0 0 0 0 0 0 0 0 0 0 0 127 0" result="hardAlpha"/>
<feMorphology radius="3.6585" operator="erode" in="SourceAlpha" result="effect2_dropShadow_822_1044"/>
<feOffset dy="9.75599"/>
<feGaussianBlur stdDeviation="14.634"/>
<feColorMatrix type="matrix" values="0 0 0 0 0.0627451 0 0 0 0 0.0941176 0 0 0 0 0.156863 0 0 0 0.05 0"/>
<feBlend mode="normal" in2="effect1_dropShadow_822_1044" result="effect2_dropShadow_822_1044"/>
<feBlend mode="normal" in="SourceGraphic" in2="effect2_dropShadow_822_1044" result="shape"/>
</filter>
<clipPath id="clip0_822_1044">
<rect width="75" height="75" fill="white" transform="translate(29.7831 11.7676) rotate(7.21612)"/>
</clipPath>
</defs>
</svg>
