<svg width="117" height="131" viewBox="0 0 117 131" fill="none" xmlns="http://www.w3.org/2000/svg">
<g filter="url(#filter0_dd_822_1056)">
<path d="M65.1373 63.3898L86.7821 59.972L51.7209 16.6403L31.718 68.6667L53.3618 65.2491" fill="#AFB9D2"/>
<path d="M65.1374 63.3895L75.6941 61.7226L54.9385 37.0075L42.8053 66.9158L53.362 65.2489" fill="#E4EAF7"/>
<path d="M86.7821 59.9723L31.7181 68.6669L38.0374 52.2275L43.3133 38.5081L51.7208 16.6406L66.4604 34.8566L75.7049 46.2815L86.7821 59.9723Z" fill="#BEC8DC"/>
<path d="M75.6944 61.7231L42.8053 66.9163L45.1827 61.0569L50.651 47.577L54.9383 37.0075L62.274 45.7434L71.6286 56.8828L75.6944 61.7231Z" fill="#E4EAF7"/>
<path d="M75.7055 46.2816L69.3856 62.7194L49.1169 65.9198L38.0378 52.2276L43.3138 38.5082L58.0517 56.7245L66.4609 34.8567L75.7055 46.2816Z" fill="#95A5B9"/>
<path d="M71.6287 56.883L69.3856 62.7195L49.1169 65.9199L45.1826 61.057L50.651 47.5772L58.0517 56.7246L62.274 45.7437L71.6287 56.883Z" fill="#BEC8DC"/>
<path d="M80.8596 22.4631L60.8569 74.4897L25.7956 31.1577L36.8841 29.4068L57.8248 55.2891L69.7726 24.2137L80.8596 22.4631Z" fill="#7DE6C4"/>
<path d="M69.7727 24.2139L57.8251 55.2889L36.8843 29.407L47.4406 27.7401L54.9384 37.0079L59.2164 25.8807L69.7727 24.2139Z" fill="#707384"/>
<path d="M88.2988 86.7933L38.5403 94.6502C37.0746 94.8817 35.6991 93.8813 35.4677 92.4162L32.9522 76.4851C32.7208 75.0194 33.7212 73.6445 35.1869 73.413L84.9454 65.5561C86.4112 65.3247 87.786 66.3247 88.0174 67.7903L90.533 83.7215C90.7643 85.1865 89.7644 86.5619 88.2988 86.7933Z" fill="#B9EBFF"/>
<path d="M84.9454 65.5554L80.0982 66.3208C81.5639 66.0894 82.9394 67.0897 83.1708 68.5549L85.6864 84.4868C85.9177 85.9517 84.9174 87.3273 83.4517 87.5588L88.2989 86.7934C89.7646 86.5619 90.7643 85.1865 90.533 83.7214L88.0173 67.7894C87.786 66.3246 86.4105 65.3241 84.9454 65.5554Z" fill="#A0DCF0"/>
<path d="M39.1948 78.456C39.1543 78.1995 39.2684 77.9606 39.5371 77.7405C39.8064 77.52 40.103 77.3839 40.4274 77.3327C40.8413 77.2674 41.1106 77.3743 41.2344 77.6526L45.2375 86.3402L46.3524 76.8444C46.3846 76.5416 46.6079 76.3568 47.0216 76.2915C47.3347 76.242 47.657 76.2833 47.987 76.4143C48.3171 76.5458 48.5022 76.7344 48.541 76.9802C48.5445 77.0028 48.5421 77.0606 48.5335 77.1534L46.9782 88.2145C46.9486 88.4601 46.8095 88.6686 46.5612 88.8394C46.3129 89.0101 46.0208 89.1223 45.6857 89.1752C44.9136 89.2971 44.4051 89.1253 44.1594 88.6595L39.2547 78.6186C39.2179 78.5329 39.1985 78.4785 39.1949 78.456L39.1948 78.456ZM50.1556 85.0306L49.5198 81.0041C49.4933 80.8363 49.5777 80.6625 49.773 80.4828C49.9682 80.3031 50.2111 80.19 50.502 80.144C50.7819 80.0998 51.042 80.1329 51.283 80.2438C51.5241 80.3546 51.6579 80.4933 51.6842 80.66L52.3183 84.6758C52.38 85.0664 52.5803 85.3922 52.9198 85.6526C53.2593 85.9133 53.6299 86.012 54.0329 85.9484C54.4353 85.8848 54.7553 85.6771 54.9919 85.3254C55.2289 84.974 55.3162 84.6027 55.2545 84.2121L54.6178 80.18C54.5897 80.0021 54.6741 79.8281 54.8711 79.6598C55.0682 79.4914 55.312 79.3845 55.603 79.3386C55.9161 79.2891 56.1846 79.3157 56.4068 79.4178C56.6291 79.52 56.7546 79.6613 56.7828 79.84L57.4212 83.8828C57.5643 84.7888 57.3315 85.64 56.7235 86.4347C56.1152 87.2306 55.3189 87.7055 54.3343 87.861C53.3504 88.0164 52.4437 87.8103 51.6141 87.2415C50.7852 86.6737 50.2987 85.9365 50.1556 85.0306ZM58.7245 83.6435L58.4992 82.2168C58.3544 81.3 58.5884 80.455 59.2002 79.6817C59.8115 78.9093 60.6264 78.4422 61.6443 78.2814C62.5949 78.1313 63.4565 78.3036 64.2283 78.7975C64.9999 79.292 65.4577 79.9937 65.6015 80.9042C65.6539 81.2366 65.6553 81.5168 65.6053 81.7465C65.5557 81.9756 65.4508 82.148 65.2914 82.2641C65.1317 82.3802 64.9813 82.4608 64.8394 82.5058C64.6977 82.5514 64.509 82.592 64.2744 82.6291L60.8679 83.167L60.9077 83.4187C60.9836 83.8995 61.2241 84.26 61.6286 84.4999C62.0338 84.7395 62.5327 84.813 63.1255 84.7194C63.5506 84.6523 63.9531 84.4798 64.3334 84.202C64.7136 83.9241 64.9651 83.7755 65.0884 83.756C65.3235 83.7189 65.5364 83.7971 65.7273 83.9899C65.9183 84.1833 66.03 84.3807 66.0617 84.5819C66.1112 84.895 65.8777 85.2505 65.3615 85.6472C64.8449 86.0439 64.1671 86.3084 63.3283 86.4408C62.1313 86.6299 61.1052 86.4681 60.2504 85.9555C59.3957 85.4428 58.8869 84.6721 58.7245 83.6435ZM60.6666 81.8919L63.1162 81.5051C63.2954 81.4768 63.4163 81.4282 63.4803 81.3597C63.544 81.2905 63.5625 81.1729 63.5361 81.0055C63.4783 80.6399 63.2889 80.3646 62.9672 80.1802C62.6454 79.9952 62.2776 79.9357 61.8644 80.0009C61.4727 80.0628 61.1489 80.2285 60.894 80.4994C60.6383 80.7696 60.5396 81.0877 60.5974 81.4534L60.6666 81.8919ZM66.535 82.4616C66.4714 82.0587 66.5114 81.7691 66.6554 81.5917C66.7994 81.4143 67.0673 81.2943 67.4588 81.2324C68.1412 81.1247 68.5407 81.2968 68.6578 81.7481C68.8916 82.9383 69.5625 83.4452 70.6696 83.2704C71.8555 83.0832 72.3467 82.3463 72.1436 81.06L71.0999 74.4499L69.3885 74.7201C69.1759 74.7537 68.9931 74.6853 68.84 74.5147C68.6868 74.3442 68.5894 74.1245 68.547 73.856C68.5064 73.5988 68.5304 73.3686 68.6182 73.1658C68.7067 72.9625 68.8627 72.8434 69.0867 72.808L72.0228 72.3444C72.2801 72.3038 72.5135 72.3301 72.7233 72.4227C72.9327 72.5158 73.0543 72.6687 73.0878 72.8812L74.3249 80.7155C74.5332 82.0351 74.3314 83.0618 73.719 83.7945C73.1065 84.5273 72.2247 84.9846 71.0723 85.1666C69.8864 85.3539 68.8743 85.2071 68.0361 84.726C67.198 84.2455 66.6975 83.4904 66.535 82.4616ZM75.9702 82.3129C75.9296 82.0558 75.9864 81.7803 76.1403 81.4861C76.2945 81.1929 76.4948 81.0263 76.741 80.9874C76.8863 80.9645 77.0624 81.0079 77.2692 81.1183C77.4798 81.2318 77.6834 81.3577 77.879 81.4954C78.0787 81.6365 78.3516 81.7515 78.6986 81.8392C79.0452 81.9276 79.4138 81.9406 79.8055 81.8787C80.3424 81.7939 80.7702 81.6008 81.0898 81.2984C81.4085 80.9953 81.5303 80.6037 81.4543 80.1226C81.4014 79.7875 81.2558 79.5041 81.0189 79.2715C80.7818 79.0402 80.4901 78.8626 80.1439 78.7393C79.7733 78.6089 79.3967 78.4961 79.0154 78.4014C78.5992 78.2964 78.1872 78.1752 77.7804 78.0381C77.3625 77.8972 76.9741 77.7269 76.6155 77.525C76.257 77.3239 75.947 77.0294 75.685 76.6402C75.4228 76.2519 75.2494 75.7891 75.1647 75.2522C75.0697 74.6508 75.1063 74.1011 75.2739 73.6032C75.4421 73.1056 75.7072 72.697 76.0692 72.378C76.4281 72.0617 76.8341 71.8034 77.2726 71.6123C77.7128 71.4204 78.1894 71.2844 78.7044 71.203C78.9953 71.1571 79.306 71.1288 79.6368 71.1172C79.9677 71.1068 80.3217 71.1186 80.7001 71.1526C81.0775 71.1875 81.397 71.2843 81.6572 71.443C81.9176 71.6024 82.0685 71.8136 82.1102 72.0777C82.1496 72.3268 82.1117 72.5971 81.9971 72.8874C81.8826 73.1784 81.6911 73.3446 81.4226 73.387C81.3219 73.4029 81.0312 73.3406 80.5498 73.1981C80.0687 73.0568 79.5545 73.0286 79.0063 73.1151C78.4026 73.2105 77.9533 73.399 77.6595 73.6806C77.3656 73.9622 77.2505 74.3043 77.314 74.7065C77.3652 75.0311 77.5444 75.2924 77.8507 75.4902C78.1573 75.6886 78.5211 75.8316 78.9417 75.9199C79.3628 76.0081 79.8235 76.1306 80.3238 76.2861C80.8241 76.4423 81.294 76.623 81.7338 76.8287C82.1734 77.0345 82.5677 77.3707 82.9166 77.8371C83.2653 78.3034 83.4932 78.878 83.6009 79.5602C83.7821 80.7076 83.5558 81.6505 82.9216 82.3889C82.287 83.1281 81.3714 83.5918 80.1742 83.7809C79.1116 83.9487 78.1656 83.8744 77.3365 83.5582C76.5063 83.2426 76.0514 82.8273 75.9702 82.3129Z" fill="#54A1FF"/>
</g>
<defs>
<filter id="filter0_dd_822_1056" x="0.186081" y="0.786891" width="115.99" height="129.262" filterUnits="userSpaceOnUse" color-interpolation-filters="sRGB">
<feFlood flood-opacity="0" result="BackgroundImageFix"/>
<feColorMatrix in="SourceAlpha" type="matrix" values="0 0 0 0 0 0 0 0 0 0 0 0 0 0 0 0 0 0 127 0" result="hardAlpha"/>
<feMorphology radius="3.6585" operator="erode" in="SourceAlpha" result="effect1_dropShadow_822_1056"/>
<feOffset dy="9.75599"/>
<feGaussianBlur stdDeviation="14.634"/>
<feColorMatrix type="matrix" values="0 0 0 0 0.0627451 0 0 0 0 0.0941176 0 0 0 0 0.156863 0 0 0 0.1 0"/>
<feBlend mode="normal" in2="BackgroundImageFix" result="effect1_dropShadow_822_1056"/>
<feColorMatrix in="SourceAlpha" type="matrix" values="0 0 0 0 0 0 0 0 0 0 0 0 0 0 0 0 0 0 127 0" result="hardAlpha"/>
<feMorphology radius="3.6585" operator="erode" in="SourceAlpha" result="effect2_dropShadow_822_1056"/>
<feOffset dy="9.75599"/>
<feGaussianBlur stdDeviation="14.634"/>
<feColorMatrix type="matrix" values="0 0 0 0 0.0627451 0 0 0 0 0.0941176 0 0 0 0 0.156863 0 0 0 0.05 0"/>
<feBlend mode="normal" in2="effect1_dropShadow_822_1056" result="effect2_dropShadow_822_1056"/>
<feBlend mode="normal" in="SourceGraphic" in2="effect2_dropShadow_822_1056" result="shape"/>
</filter>
</defs>
</svg>
