<svg width="91" height="91" viewBox="0 0 91 91" fill="none" xmlns="http://www.w3.org/2000/svg">
<path d="M75.6166 26.7294L59.0177 37.2574C56.8616 33.858 53.409 31.2809 49.1715 30.3325L53.4641 11.1519C62.9986 13.2857 70.7673 19.0816 75.6166 26.7294Z" fill="url(#paint0_linear_822_1069)"/>
<path d="M37.313 32.3999C33.9135 34.556 31.3364 38.0086 30.3881 42.2461L11.2074 37.9535C13.3412 28.419 19.1372 20.6503 26.785 15.801L37.313 32.3999Z" fill="url(#paint1_linear_822_1069)"/>
<path d="M53.4641 11.152L49.1715 30.3327C44.934 29.3843 40.7123 30.2439 37.3128 32.4L26.7849 15.8011C34.4314 10.9499 43.9297 9.01819 53.4641 11.152Z" fill="url(#paint2_linear_822_1069)"/>
<path d="M80.2658 53.4086L61.0851 49.116C62.0335 44.8784 61.1738 40.6567 59.0177 37.2573L75.6167 26.7293C80.4679 34.3759 82.3996 43.8741 80.2658 53.4086Z" fill="url(#paint3_linear_822_1069)"/>
<path d="M80.2658 53.4087C78.132 62.9431 72.336 70.7119 64.6882 75.5612L54.1602 58.9623C57.5596 56.8062 60.1368 53.3536 61.0851 49.1161L80.2658 53.4087Z" fill="url(#paint4_linear_822_1069)"/>
<path d="M32.4554 54.1046L15.8565 64.6326C11.0053 56.986 9.0736 47.4878 11.2074 37.9534L30.3881 42.246C29.4397 46.4835 30.2993 50.7052 32.4554 54.1046Z" fill="url(#paint5_linear_822_1069)"/>
<path d="M64.6881 75.5614C57.0416 80.4126 47.5433 82.3443 38.0089 80.2105L42.3015 61.0298C46.539 61.9782 50.7608 61.1185 54.1602 58.9624L64.6881 75.5614Z" fill="url(#paint6_linear_822_1069)"/>
<path d="M42.3015 61.0297L38.0089 80.2104C28.4744 78.0766 20.7057 72.2806 15.8564 64.6328L32.4553 54.1048C34.6114 57.5042 38.064 60.0814 42.3015 61.0297Z" fill="url(#paint7_linear_822_1069)"/>
<path d="M68.4033 31.3044L59.0177 37.2573C56.8616 33.8579 53.409 31.2807 49.1715 30.3324L51.5984 19.4883C58.8322 21.1072 64.7227 25.5036 68.4033 31.3044Z" fill="url(#paint8_linear_822_1069)"/>
<path d="M37.313 32.4C33.9135 34.5561 31.3364 38.0087 30.3881 42.2462L19.544 39.8193C21.1629 32.5854 25.5591 26.695 31.3601 23.0144L37.313 32.4Z" fill="url(#paint9_linear_822_1069)"/>
<path d="M51.5985 19.4884L49.1716 30.3325C44.9341 29.3841 40.7124 30.2438 37.313 32.3999L31.3601 23.0142C37.1622 19.3357 44.3647 17.8695 51.5985 19.4884Z" fill="url(#paint10_linear_822_1069)"/>
<path d="M71.9292 51.5432L61.0851 49.1163C62.0334 44.8788 61.1738 40.6571 59.0177 37.2576L68.4033 31.3047C72.0819 37.1069 73.5481 44.3093 71.9292 51.5432Z" fill="url(#paint11_linear_822_1069)"/>
<path d="M71.9292 51.543C70.3103 58.7768 65.9139 64.6673 60.1131 68.3479L54.1602 58.9623C57.5596 56.8062 60.1368 53.3536 61.0851 49.1161L71.9292 51.543Z" fill="url(#paint12_linear_822_1069)"/>
<path d="M32.4554 54.1049L23.0698 60.0578C19.3912 54.2556 17.925 47.0532 19.5439 39.8193L30.388 42.2462C29.4397 46.4838 30.2993 50.7055 32.4554 54.1049Z" fill="url(#paint13_linear_822_1069)"/>
<path d="M60.1131 68.3481C54.3109 72.0266 47.1085 73.4928 39.8746 71.8739L42.3015 61.0298C46.539 61.9782 50.7607 61.1185 54.1602 58.9624L60.1131 68.3481Z" fill="url(#paint14_linear_822_1069)"/>
<path d="M42.3016 61.0297L39.8747 71.8738C32.6408 70.2549 26.7504 65.8585 23.0698 60.0577L32.4554 54.1048C34.6115 57.5042 38.0641 60.0813 42.3016 61.0297Z" fill="url(#paint15_linear_822_1069)"/>
<path d="M78.5344 32.4009L61.2921 43.3369C61.5746 45.2071 61.523 47.1598 61.0851 49.1161C60.1368 53.3536 57.5597 56.8062 54.1602 58.9623C50.7608 61.1184 46.5391 61.978 42.3016 61.0296C40.3453 60.5918 38.5568 59.8062 36.9855 58.7535L19.7432 69.6895C24.4543 74.7993 30.7139 78.5777 38.0091 80.2104C47.5436 82.3441 57.0418 80.4125 64.6884 75.5612C72.3361 70.7121 78.1322 62.9431 80.266 53.4087C81.8985 46.1135 81.1486 38.8405 78.5344 32.4009Z" fill="url(#paint16_linear_822_1069)"/>
<path d="M13.3949 53.4438L1.4039 72.4221C0.823761 73.3404 1.57184 74.52 2.64978 74.3866L24.9288 71.629C29.9656 68.4344 18.4315 50.2493 13.3949 53.4438Z" fill="url(#paint17_linear_822_1069)"/>
<path d="M55.4044 52.3015L24.9286 71.6288C24.6796 70.8327 24.201 70.0705 23.5079 69.4512C22.5599 68.6098 20.7942 68.5591 19.5431 68.6522C19.2711 68.6711 19.0677 68.486 19.0183 68.2614C19.0011 68.1894 19 68.1145 19.0152 68.0421C19.0305 67.9697 19.0616 67.9015 19.1063 67.8426C19.109 67.8432 19.1097 67.8404 19.1097 67.8404C19.2073 67.7069 19.2982 67.5685 19.3819 67.4258L19.4963 67.2207C19.5002 67.2158 19.5008 67.2131 19.502 67.2078C19.6172 66.9858 19.7134 66.7596 19.7918 66.5237C19.8176 66.4469 19.8412 66.3667 19.8641 66.2892C19.9002 66.1597 19.9308 66.029 19.9558 65.897C20.1364 64.9525 20.0259 63.9753 19.6391 63.0949C19.5417 62.8718 19.4271 62.6567 19.2962 62.4514C19.1664 62.2455 19.0206 62.05 18.8603 61.8668C18.1218 61.0181 17.1255 60.4818 16.0666 60.3018C15.9867 60.2897 15.9041 60.2769 15.8237 60.2673C15.5768 60.2377 15.3285 60.2276 15.0813 60.2379C15.0759 60.2367 15.0731 60.236 15.0671 60.2376L14.8328 60.2535C14.7487 60.2603 14.6667 60.2705 14.5841 60.2833C14.5048 60.2941 14.4248 60.3075 14.3443 60.3237C14.3416 60.3231 14.3416 60.3231 14.3383 60.3252C14.2659 60.3406 14.191 60.3397 14.1189 60.3226C14.0469 60.3055 13.9796 60.2726 13.9219 60.2263C13.7398 60.0859 13.6591 59.8228 13.792 59.585C14.4096 58.4929 15.1158 56.8768 14.7586 55.6606C14.4943 54.767 14.0117 54.0097 13.395 53.4446L43.8687 34.1142C45.2421 33.2453 47.0592 33.652 47.9286 35.0228L49.5726 37.6148L54.6689 45.6499L56.313 48.242C57.1823 49.6124 56.7757 51.4294 55.4044 52.3015Z" fill="url(#paint18_linear_822_1069)"/>
<path d="M54.6689 45.6495L19.0183 68.2611C19.001 68.1891 19 68.1142 19.0152 68.0418C19.0304 67.9694 19.0615 67.9012 19.1063 67.8423C19.109 67.8429 19.1096 67.8402 19.1096 67.8402C19.2082 67.7056 19.7165 66.7572 19.7916 66.5234C19.8207 66.4444 19.8437 66.367 19.864 66.2889C20.1525 65.2543 20.0921 64.1244 19.6391 63.0946C19.5417 62.8716 19.4271 62.6564 19.2962 62.4511C19.1664 62.2452 19.0206 62.0497 18.8603 61.8665C18.1218 61.0178 17.1255 60.4815 16.0666 60.3015C15.9873 60.2867 15.9074 60.2745 15.8237 60.2671C15.5776 60.2352 15.3291 60.2253 15.0813 60.2376C15.0758 60.2364 15.0731 60.2358 15.067 60.2373C14.9896 60.2398 14.425 60.3071 14.3443 60.3233C14.3416 60.3227 14.3416 60.3227 14.3383 60.3248C14.2659 60.3402 14.191 60.3393 14.119 60.3222C14.0469 60.3051 13.9796 60.2722 13.9219 60.2259L49.5726 37.6142L54.6689 45.6495Z" fill="url(#paint19_linear_822_1069)"/>
<path d="M6.14065 70.795C5.55394 69.8686 4.82706 69.0389 3.98593 68.3354L1.40409 72.4218C0.823952 73.3401 1.57203 74.5198 2.65001 74.3862L7.44709 73.7925C7.16935 72.7317 6.72862 71.7205 6.14065 70.795Z" fill="url(#paint20_linear_822_1069)"/>
<path d="M87.6783 19.0793L50.8786 42.4198L47.4643 37.0367C46.7201 35.8633 47.068 34.3087 48.2414 33.5645L51.4609 31.5224C52.149 31.086 52.7444 30.5183 53.2132 29.8518C53.6819 29.1852 54.0147 28.4329 54.1926 27.6377L54.9264 24.3593C55.5036 21.78 57.6513 19.8495 60.2774 19.5496L86.7758 16.5234C88.2428 16.3558 88.9251 18.2884 87.6783 19.0793Z" fill="url(#paint21_linear_822_1069)"/>
<path d="M87.6785 19.0794L50.8787 42.4198L54.293 47.8029C55.0372 48.9763 56.5918 49.3242 57.7652 48.58L60.9848 46.538C61.6729 46.1016 62.4402 45.8049 63.2429 45.6651C64.0457 45.5252 64.8681 45.5448 65.6633 45.7227L68.9416 46.4564C71.5209 47.0336 74.1827 45.9137 75.5733 43.6659L89.6057 20.9851C90.3827 19.7296 88.9253 18.2885 87.6785 19.0794Z" fill="url(#paint22_linear_822_1069)"/>
<path d="M70.0245 31.4879L88.5087 19.7641C88.9689 19.4723 89.1505 18.8702 88.8889 18.3921C88.8219 18.2691 88.7303 18.1611 88.6199 18.0749C88.5094 17.9887 88.3825 17.9261 88.2468 17.891C88.1112 17.8558 87.9698 17.8489 87.8314 17.8707C87.693 17.8924 87.5606 17.9424 87.4423 18.0174L68.9717 29.7326C67.7623 30.4997 66.2718 30.7342 64.9072 30.2997C63.6449 29.8978 62.2052 30.0876 61.0434 30.9713C59.3971 32.2236 58.9025 34.5304 59.8874 36.3494C61.0699 38.5333 63.8293 39.2261 65.8907 37.9187C66.9702 37.234 67.6347 36.1423 67.8116 34.9704C68.0269 33.5425 68.8051 32.2613 70.0245 31.4879Z" fill="url(#paint23_linear_822_1069)"/>
<path d="M53.5488 29.3175C53.0461 30.2139 52.3287 30.9715 51.461 31.5221L48.2414 33.5642C47.0681 34.3084 46.7201 35.863 47.4643 37.0364L50.8786 42.4195L54.2929 47.8026C55.0371 48.976 56.5917 49.3239 57.7651 48.5797L60.9847 46.5376C61.8526 45.9873 62.8437 45.6612 63.8689 45.5887L53.5488 29.3175Z" fill="url(#paint24_linear_822_1069)"/>
<path d="M50.8977 55.1599L39.3621 36.9721L46.6103 32.3749C47.4498 31.8424 48.5619 32.0913 49.0942 32.9308L58.7019 48.0787C59.2343 48.9182 58.9854 50.0302 58.146 50.5625L50.8977 55.1599Z" fill="url(#paint25_linear_822_1069)"/>
<defs>
<linearGradient id="paint0_linear_822_1069" x1="50.0172" y1="9.01693" x2="67.7362" y2="36.9537" gradientUnits="userSpaceOnUse">
<stop stop-color="#FFF5D9"/>
<stop offset="1" stop-color="#FFCE47"/>
</linearGradient>
<linearGradient id="paint1_linear_822_1069" x1="18.487" y1="26.0744" x2="26.4182" y2="38.5791" gradientUnits="userSpaceOnUse">
<stop stop-color="#6FA953"/>
<stop offset="1" stop-color="#43765A"/>
</linearGradient>
<linearGradient id="paint2_linear_822_1069" x1="39.1492" y1="11.9388" x2="49.5721" y2="28.3722" gradientUnits="userSpaceOnUse">
<stop stop-color="#E4E08E"/>
<stop offset="1" stop-color="#6FA953"/>
</linearGradient>
<linearGradient id="paint3_linear_822_1069" x1="61.4767" y1="27.0845" x2="78.3936" y2="53.7566" gradientUnits="userSpaceOnUse">
<stop stop-color="#FFCE47"/>
<stop offset="1" stop-color="#FF9356"/>
</linearGradient>
<linearGradient id="paint4_linear_822_1069" x1="61.917" y1="47.8354" x2="71.724" y2="63.2978" gradientUnits="userSpaceOnUse">
<stop stop-color="#FF9356"/>
<stop offset="1" stop-color="#FF755C"/>
</linearGradient>
<linearGradient id="paint5_linear_822_1069" x1="13.756" y1="38.6719" x2="25.2958" y2="56.8662" gradientUnits="userSpaceOnUse">
<stop stop-color="#7ACBFF"/>
<stop offset="1" stop-color="#45A2E0"/>
</linearGradient>
<linearGradient id="paint6_linear_822_1069" x1="41.8539" y1="62.9163" x2="51.5349" y2="78.1798" gradientUnits="userSpaceOnUse">
<stop stop-color="#FF755C"/>
<stop offset="1" stop-color="#FF4181"/>
</linearGradient>
<linearGradient id="paint7_linear_822_1069" x1="22.0107" y1="51.6868" x2="45.4202" y2="88.5957" gradientUnits="userSpaceOnUse">
<stop stop-color="#FF4181"/>
<stop offset="1" stop-color="#843561"/>
</linearGradient>
<linearGradient id="paint8_linear_822_1069" x1="62.3009" y1="36.3579" x2="51.3955" y2="19.1639" gradientUnits="userSpaceOnUse">
<stop stop-color="#FFF5D9"/>
<stop offset="1" stop-color="#FFCE47"/>
</linearGradient>
<linearGradient id="paint9_linear_822_1069" x1="31.9605" y1="41.6784" x2="18.4442" y2="20.3679" gradientUnits="userSpaceOnUse">
<stop stop-color="#6FA953"/>
<stop offset="1" stop-color="#43765A"/>
</linearGradient>
<linearGradient id="paint10_linear_822_1069" x1="47.2755" y1="30.3899" x2="35.2468" y2="11.4248" gradientUnits="userSpaceOnUse">
<stop stop-color="#E4E08E"/>
<stop offset="1" stop-color="#6FA953"/>
</linearGradient>
<linearGradient id="paint11_linear_822_1069" x1="71.8017" y1="51.3377" x2="59.1033" y2="31.3167" gradientUnits="userSpaceOnUse">
<stop stop-color="#FFCE47"/>
<stop offset="1" stop-color="#FF9356"/>
</linearGradient>
<linearGradient id="paint12_linear_822_1069" x1="67.9946" y1="63.0569" x2="59.511" y2="49.6813" gradientUnits="userSpaceOnUse">
<stop stop-color="#FF9356"/>
<stop offset="1" stop-color="#FF755C"/>
</linearGradient>
<linearGradient id="paint13_linear_822_1069" x1="32.3619" y1="60.0333" x2="16.6987" y2="35.3379" gradientUnits="userSpaceOnUse">
<stop stop-color="#7ACBFF"/>
<stop offset="1" stop-color="#45A2E0"/>
</linearGradient>
<linearGradient id="paint14_linear_822_1069" x1="52.4206" y1="73.9371" x2="41.004" y2="55.9372" gradientUnits="userSpaceOnUse">
<stop stop-color="#FF755C"/>
<stop offset="1" stop-color="#FF4181"/>
</linearGradient>
<linearGradient id="paint15_linear_822_1069" x1="40.1316" y1="72.2833" x2="26.1987" y2="50.316" gradientUnits="userSpaceOnUse">
<stop stop-color="#FF4181"/>
<stop offset="1" stop-color="#843561"/>
</linearGradient>
<linearGradient id="paint16_linear_822_1069" x1="57.2436" y1="63.8239" x2="49.1465" y2="51.0575" gradientUnits="userSpaceOnUse">
<stop stop-color="#843561" stop-opacity="0"/>
<stop offset="1" stop-color="#3A2F4D"/>
</linearGradient>
<linearGradient id="paint17_linear_822_1069" x1="6.40184" y1="57.8444" x2="17.9359" y2="76.0297" gradientUnits="userSpaceOnUse">
<stop stop-color="#FFE0EA"/>
<stop offset="1" stop-color="#FFC0D5"/>
</linearGradient>
<linearGradient id="paint18_linear_822_1069" x1="14.6129" y1="48.0023" x2="55.215" y2="57.089" gradientUnits="userSpaceOnUse">
<stop stop-color="#FFCE47"/>
<stop offset="1" stop-color="#FF9356"/>
</linearGradient>
<linearGradient id="paint19_linear_822_1069" x1="39.0811" y1="60.4832" x2="27.4374" y2="42.1252" gradientUnits="userSpaceOnUse">
<stop stop-color="#FFCE47"/>
<stop offset="1" stop-color="#FF9356"/>
</linearGradient>
<linearGradient id="paint20_linear_822_1069" x1="3.42128" y1="71.7152" x2="6.36429" y2="76.3553" gradientUnits="userSpaceOnUse">
<stop stop-color="#2F73A0"/>
<stop offset="1" stop-color="#174461"/>
</linearGradient>
<linearGradient id="paint21_linear_822_1069" x1="67.2541" y1="25.5436" x2="68.4914" y2="29.1962" gradientUnits="userSpaceOnUse">
<stop stop-color="#EDF5FF"/>
<stop offset="1" stop-color="#C7E9FF"/>
</linearGradient>
<linearGradient id="paint22_linear_822_1069" x1="70.8394" y1="32.8414" x2="72.4315" y2="38.1878" gradientUnits="userSpaceOnUse">
<stop stop-color="#EDF5FF"/>
<stop offset="1" stop-color="#C7E9FF"/>
</linearGradient>
<linearGradient id="paint23_linear_822_1069" x1="76.5682" y1="30.7858" x2="73.0286" y2="25.2051" gradientUnits="userSpaceOnUse">
<stop stop-color="#2F73A0"/>
<stop offset="1" stop-color="#174461"/>
</linearGradient>
<linearGradient id="paint24_linear_822_1069" x1="56.6444" y1="38.7418" x2="53.5957" y2="40.6755" gradientUnits="userSpaceOnUse">
<stop stop-color="#7ACBFF" stop-opacity="0"/>
<stop offset="1" stop-color="#2F73A0"/>
</linearGradient>
<linearGradient id="paint25_linear_822_1069" x1="51.1617" y1="41.3338" x2="45.8895" y2="46.6946" gradientUnits="userSpaceOnUse">
<stop stop-color="#2F73A0"/>
<stop offset="1" stop-color="#174461"/>
</linearGradient>
</defs>
</svg>
